<?xml version="1.0" encoding="UTF-8" standalone="no"?>
<!DOCTYPE svg PUBLIC "-//W3C//DTD SVG 1.1//EN" "http://www.w3.org/Graphics/SVG/1.1/DTD/svg11.dtd">
<svg width="100%" height="100%" viewBox="0 0 550 457" version="1.1" xmlns="http://www.w3.org/2000/svg" xmlns:xlink="http://www.w3.org/1999/xlink" xml:space="preserve" xmlns:serif="http://www.serif.com/" style="fill-rule:evenodd;clip-rule:evenodd;stroke-linejoin:round;stroke-miterlimit:2;">
    <g id="empty-data" serif:id="empty data" transform="matrix(0.725847,0,0,0.725847,-784.525,-133.694)">
        <path d="M1572.7,685.746C1571.11,686.409 1569.94,687.43 1568.55,688.546C1567.67,689.311 1566.89,690.304 1566.02,691.069C1564.94,692.316 1564.35,693.76 1563.6,695.139C1563.21,696.102 1563.04,696.97 1562.64,697.933C1562.28,699.283 1562.23,700.764 1562.29,702.215C1562.36,704.392 1562.89,706.558 1563.91,708.595C1567.49,715.847 1576.61,719.207 1584.26,716.533C1588.66,714.958 1592.44,712.574 1595.79,709.446C1596.79,708.359 1597.87,707.112 1598.87,706.025C1600.37,704.202 1601.55,702.247 1602.47,700C1603.03,698.169 1603.36,696.433 1603.38,694.564C1603.39,693.631 1603.01,692.726 1602.79,691.887C1597.44,680.7 1582.46,681.124 1572.7,685.746ZM1652.08,269.356C1660.21,268.194 1667.18,265.29 1674.15,260.643C1677.64,257.738 1679.96,254.254 1682.68,251.371C1686.1,246.895 1688.57,241.753 1689.8,236.123C1697.97,203.138 1661.95,181.065 1632.33,184.551C1624.78,185.712 1617.23,186.293 1609.68,188.036C1603.87,189.778 1598.64,191.52 1593.99,195.006C1589.93,198.491 1586.44,201.395 1583.54,206.042C1582.96,207.785 1581.8,209.527 1581.21,211.851C1577.15,249.607 1617.81,273.422 1652.08,269.356ZM1541.44,706.659C1533.38,694.481 1516.28,690.534 1503.18,697.064C1495.67,700.882 1489.42,706.013 1484.15,712.377C1482.59,714.552 1480.95,717.03 1479.39,719.204C1477.13,722.811 1475.47,726.579 1474.33,730.813C1473.74,734.221 1473.53,737.408 1473.93,740.756C1474.12,742.431 1475.01,743.966 1475.59,745.419C1487.72,764.242 1514.45,760.079 1530.89,749.583C1533.58,748.035 1535.44,745.941 1537.68,743.625C1539.07,742.055 1540.25,740.101 1541.64,738.53C1543.28,736.052 1544.01,733.331 1545.05,730.69C1545.53,728.876 1545.64,727.283 1546.13,725.468C1546.47,722.968 1546.22,720.305 1545.79,717.718C1545.17,713.835 1543.73,710.074 1541.44,706.659ZM1791.66,538.504C1784.14,548.703 1775.93,558.349 1767.21,567.29C1758.49,576.229 1749.27,584.465 1739.71,591.845C1732.15,597.512 1724.22,602.724 1715.99,607.516C1703.64,614.702 1690.59,620.942 1677.19,626.331C1635.69,644.066 1591.25,648.551 1545.99,653.444C1523.97,655.89 1502.36,662.414 1485.81,677.459C1472.67,690.203 1461.95,704.324 1452.42,719.505C1442.89,734.685 1434.55,750.925 1426.13,767.792C1420.95,777.423 1413.45,784.811 1404.97,790.974C1401.52,793.602 1397.91,795.874 1394.15,797.945C1390.39,800.015 1386.49,801.883 1382.43,803.71C1335.63,825.826 1275.94,807.837 1256.45,758.502C1244.09,727.294 1235.16,695.386 1208.79,674.034C1161.39,635.677 1094.76,606.097 1083.32,540.118C1081.18,527.546 1080.48,515.684 1081.01,502.857C1081.64,486.436 1084.25,470.206 1088.66,454.596C1093.06,438.987 1099.25,423.998 1107.04,410.059C1115.15,396.595 1124.14,383.457 1133.8,370.599C1160.27,332.962 1185.55,295.858 1221.02,264.462C1238.15,249.784 1254.86,237.552 1274.03,224.504C1287.48,215.942 1299.72,208.194 1313.99,202.486C1375.96,172.721 1445.28,189.847 1500.32,231.028C1542.32,262.831 1583.91,292.189 1635.44,299.919C1643.6,301.758 1653.17,304.35 1663.92,307.255C1693.18,313.391 1722.13,315.021 1752.3,320.322C1772.28,323.992 1791.04,329.293 1806.13,342.748C1866.47,394.938 1831.4,484.641 1791.66,538.504Z" style="fill:url(#_Linear1);fill-rule:nonzero;"/>
        <clipPath id="_clip2">
            <path d="M1572.7,685.746C1571.11,686.409 1569.94,687.43 1568.55,688.546C1567.67,689.311 1566.89,690.304 1566.02,691.069C1564.94,692.316 1564.35,693.76 1563.6,695.139C1563.21,696.102 1563.04,696.97 1562.64,697.933C1562.28,699.283 1562.23,700.764 1562.29,702.215C1562.36,704.392 1562.89,706.558 1563.91,708.595C1567.49,715.847 1576.61,719.207 1584.26,716.533C1588.66,714.958 1592.44,712.574 1595.79,709.446C1596.79,708.359 1597.87,707.112 1598.87,706.025C1600.37,704.202 1601.55,702.247 1602.47,700C1603.03,698.169 1603.36,696.433 1603.38,694.564C1603.39,693.631 1603.01,692.726 1602.79,691.887C1597.44,680.7 1582.46,681.124 1572.7,685.746ZM1652.08,269.356C1660.21,268.194 1667.18,265.29 1674.15,260.643C1677.64,257.738 1679.96,254.254 1682.68,251.371C1686.1,246.895 1688.57,241.753 1689.8,236.123C1697.97,203.138 1661.95,181.065 1632.33,184.551C1624.78,185.712 1617.23,186.293 1609.68,188.036C1603.87,189.778 1598.64,191.52 1593.99,195.006C1589.93,198.491 1586.44,201.395 1583.54,206.042C1582.96,207.785 1581.8,209.527 1581.21,211.851C1577.15,249.607 1617.81,273.422 1652.08,269.356ZM1541.44,706.659C1533.38,694.481 1516.28,690.534 1503.18,697.064C1495.67,700.882 1489.42,706.013 1484.15,712.377C1482.59,714.552 1480.95,717.03 1479.39,719.204C1477.13,722.811 1475.47,726.579 1474.33,730.813C1473.74,734.221 1473.53,737.408 1473.93,740.756C1474.12,742.431 1475.01,743.966 1475.59,745.419C1487.72,764.242 1514.45,760.079 1530.89,749.583C1533.58,748.035 1535.44,745.941 1537.68,743.625C1539.07,742.055 1540.25,740.101 1541.64,738.53C1543.28,736.052 1544.01,733.331 1545.05,730.69C1545.53,728.876 1545.64,727.283 1546.13,725.468C1546.47,722.968 1546.22,720.305 1545.79,717.718C1545.17,713.835 1543.73,710.074 1541.44,706.659ZM1791.66,538.504C1784.14,548.703 1775.93,558.349 1767.21,567.29C1758.49,576.229 1749.27,584.465 1739.71,591.845C1732.15,597.512 1724.22,602.724 1715.99,607.516C1703.64,614.702 1690.59,620.942 1677.19,626.331C1635.69,644.066 1591.25,648.551 1545.99,653.444C1523.97,655.89 1502.36,662.414 1485.81,677.459C1472.67,690.203 1461.95,704.324 1452.42,719.505C1442.89,734.685 1434.55,750.925 1426.13,767.792C1420.95,777.423 1413.45,784.811 1404.97,790.974C1401.52,793.602 1397.91,795.874 1394.15,797.945C1390.39,800.015 1386.49,801.883 1382.43,803.71C1335.63,825.826 1275.94,807.837 1256.45,758.502C1244.09,727.294 1235.16,695.386 1208.79,674.034C1161.39,635.677 1094.76,606.097 1083.32,540.118C1081.18,527.546 1080.48,515.684 1081.01,502.857C1081.64,486.436 1084.25,470.206 1088.66,454.596C1093.06,438.987 1099.25,423.998 1107.04,410.059C1115.15,396.595 1124.14,383.457 1133.8,370.599C1160.27,332.962 1185.55,295.858 1221.02,264.462C1238.15,249.784 1254.86,237.552 1274.03,224.504C1287.48,215.942 1299.72,208.194 1313.99,202.486C1375.96,172.721 1445.28,189.847 1500.32,231.028C1542.32,262.831 1583.91,292.189 1635.44,299.919C1643.6,301.758 1653.17,304.35 1663.92,307.255C1693.18,313.391 1722.13,315.021 1752.3,320.322C1772.28,323.992 1791.04,329.293 1806.13,342.748C1866.47,394.938 1831.4,484.641 1791.66,538.504Z" clip-rule="nonzero"/>
        </clipPath>
        <g clip-path="url(#_clip2)">
            <g transform="matrix(0.930361,0,0,0.930361,99.2184,50.5716)">
                <g transform="matrix(2.20372,0,0,2.20372,-798.667,-1752.82)">
                    <path d="M1003.21,1350.93L1003.21,1016.49C1003.21,1012.93 1001.79,1009.51 999.273,1006.99C996.752,1004.47 993.334,1003.05 989.77,1003.05C962.877,1003.05 905,1003.05 905,1003.05C915.142,996.367 913.587,984.427 905,977.743L862.231,1021.03L904.654,1061.96C913.781,1055.49 913.64,1043.76 904.654,1037.28L956.724,1037.28C960.288,1037.28 963.707,1038.7 966.227,1041.22C968.747,1043.74 970.163,1047.16 970.163,1050.72L970.163,1350.93L1003.21,1350.93Z" style="fill:url(#_Linear3);"/>
                    <clipPath id="_clip4">
                        <path d="M1003.21,1350.93L1003.21,1016.49C1003.21,1012.93 1001.79,1009.51 999.273,1006.99C996.752,1004.47 993.334,1003.05 989.77,1003.05C962.877,1003.05 905,1003.05 905,1003.05C915.142,996.367 913.587,984.427 905,977.743L862.231,1021.03L904.654,1061.96C913.781,1055.49 913.64,1043.76 904.654,1037.28L956.724,1037.28C960.288,1037.28 963.707,1038.7 966.227,1041.22C968.747,1043.74 970.163,1047.16 970.163,1050.72L970.163,1350.93L1003.21,1350.93Z"/>
                    </clipPath>
                    <g clip-path="url(#_clip4)">
                        <g transform="matrix(1,0,0,1,-14.193,9.98767)">
                            <path d="M1003.21,1350.93L1003.21,1016.49C1003.21,1012.93 1001.79,1009.51 999.273,1006.99C996.752,1004.47 993.334,1003.05 989.77,1003.05C962.877,1003.05 905,1003.05 905,1003.05C915.142,996.367 913.587,984.427 905,977.743L862.231,1021.03L925.681,1078.26C934.808,1071.78 934.666,1043.76 925.681,1037.28L956.724,1037.28C964.146,1037.28 970.163,1043.3 970.163,1050.72L970.163,1350.93L1003.21,1350.93Z" style="fill:url(#_Linear5);"/>
                        </g>
                    </g>
                </g>
                <g transform="matrix(-2.20372,0,0,2.20372,3648.17,-1845.49)">
                    <path d="M970.163,1146.01L1003.21,1185.48L1003.21,1016.49C1003.21,1009.07 997.192,1003.05 989.77,1003.05C962.733,1003.05 904.328,1003.05 904.328,1003.05C914.47,996.367 912.915,984.427 904.328,977.743L862.231,1021.03L904.654,1061.96C913.781,1055.49 913.64,1043.76 904.654,1037.28L956.724,1037.28C960.288,1037.28 963.707,1038.7 966.227,1041.22C968.747,1043.74 970.163,1047.16 970.163,1050.72L970.163,1146.01Z" style="fill:url(#_Linear6);"/>
                    <clipPath id="_clip7">
                        <path d="M970.163,1146.01L1003.21,1185.48L1003.21,1016.49C1003.21,1009.07 997.192,1003.05 989.77,1003.05C962.733,1003.05 904.328,1003.05 904.328,1003.05C914.47,996.367 912.915,984.427 904.328,977.743L862.231,1021.03L904.654,1061.96C913.781,1055.49 913.64,1043.76 904.654,1037.28L956.724,1037.28C960.288,1037.28 963.707,1038.7 966.227,1041.22C968.747,1043.74 970.163,1047.16 970.163,1050.72L970.163,1146.01Z"/>
                    </clipPath>
                    <g clip-path="url(#_clip7)">
                        <g transform="matrix(1,0,0,1,-10.5133,10.5133)">
                            <path d="M970.163,1127.99L1003.21,1153.82L1003.21,1016.49C1003.21,1012.93 1001.79,1009.51 999.273,1006.99C996.752,1004.47 993.334,1003.05 989.77,1003.05C962.877,1003.05 905,1003.05 905,1003.05C915.142,996.367 913.587,984.427 905,977.743L862.231,1021.03L930.937,1072.48C940.065,1066 939.923,1054.27 930.937,1047.8C930.937,1047.8 942.628,1044.66 953.245,1041.82C957.281,1040.74 961.59,1041.59 964.905,1044.14C968.22,1046.68 970.163,1050.62 970.163,1054.8L970.163,1127.99Z" style="fill:url(#_Linear8);"/>
                        </g>
                    </g>
                </g>
                <g transform="matrix(1.02676,0,0,1.02676,399.774,-619.973)">
                    <path d="M955,1407L955,916.297C941.598,935.117 922.142,933.566 902,916.297L983.951,826.014L1071.23,916.297C1052.16,929.527 1033.08,929.631 1014,916.297L1014,1407L955,1407Z" style="fill:url(#_Linear9);"/>
                </g>
            </g>
        </g>
    </g>
    <defs>
        <linearGradient id="_Linear1" x1="0" y1="0" x2="1" y2="0" gradientUnits="userSpaceOnUse" gradientTransform="matrix(-954.746,657.163,-657.163,-954.746,2012.85,-31.1062)"><stop offset="0" style="stop-color:rgb(105,177,235);stop-opacity:1"/><stop offset="1" style="stop-color:white;stop-opacity:1"/></linearGradient>
        <linearGradient id="_Linear3" x1="0" y1="0" x2="1" y2="0" gradientUnits="userSpaceOnUse" gradientTransform="matrix(84.1543,62.1515,-62.1515,84.1543,879.934,1005.73)"><stop offset="0" style="stop-color:rgb(10,60,33);stop-opacity:1"/><stop offset="1" style="stop-color:rgb(50,175,108);stop-opacity:1"/></linearGradient>
        <linearGradient id="_Linear5" x1="0" y1="0" x2="1" y2="0" gradientUnits="userSpaceOnUse" gradientTransform="matrix(110.611,-62.2915,62.2915,110.611,892.598,1073.43)"><stop offset="0" style="stop-color:white;stop-opacity:1"/><stop offset="1" style="stop-color:rgb(44,158,97);stop-opacity:1"/></linearGradient>
        <linearGradient id="_Linear6" x1="0" y1="0" x2="1" y2="0" gradientUnits="userSpaceOnUse" gradientTransform="matrix(158.769,268.382,268.382,-158.769,933.413,960.774)"><stop offset="0" style="stop-color:rgb(4,65,114);stop-opacity:1"/><stop offset="1" style="stop-color:rgb(0,114,207);stop-opacity:1"/></linearGradient>
        <linearGradient id="_Linear8" x1="0" y1="0" x2="1" y2="0" gradientUnits="userSpaceOnUse" gradientTransform="matrix(60.3599,-58.3674,-58.3674,-60.3599,943.233,1067.65)"><stop offset="0" style="stop-color:rgb(105,177,235);stop-opacity:1"/><stop offset="1" style="stop-color:rgb(0,122,221);stop-opacity:1"/></linearGradient>
        <linearGradient id="_Linear9" x1="0" y1="0" x2="1" y2="0" gradientUnits="userSpaceOnUse" gradientTransform="matrix(2.99418e-14,-488.986,488.986,2.99418e-14,970,1315)"><stop offset="0" style="stop-color:white;stop-opacity:1"/><stop offset="1" style="stop-color:rgb(34,113,177);stop-opacity:1"/></linearGradient>
    </defs>
</svg>
