<svg xmlns="http://www.w3.org/2000/svg" width="400" height="100" viewBox="100 150 400 100" fill="none">
<rect width="600" height="200" fill="none"/>
<path fill-rule="evenodd" clip-rule="evenodd" d="M177 235C196.33 235 212 219.33 212 200C212 180.67 196.33 165 177 165C157.67 165 142 180.67 142 200C142 219.33 157.67 235 177 235ZM187.763 210.255C189.787 208.976 191 206.835 191 204.545C191 201.362 188.676 198.594 185.38 197.851L175.504 195.399C174.573 195.189 174.35 194.042 175.142 193.536L182.836 188.629C186.418 186.344 187.349 181.766 184.916 178.403C184.612 177.983 184.002 177.874 183.555 178.159L166.173 189.883C164.188 191.15 163 193.257 163 195.51C163 198.655 165.296 201.39 168.553 202.124L178.59 204.611C179.523 204.822 179.744 205.973 178.948 206.477L171.197 211.376C167.606 213.647 166.654 218.221 169.072 221.594C169.375 222.015 169.984 222.127 170.432 221.843L187.763 210.255Z" fill="#5733FF"/>
<path d="M242.898 216.964C239.632 216.964 236.724 216.43 234.174 215.361C231.624 214.292 229.566 212.777 228 210.817L233.771 205.94C235.113 207.41 236.634 208.479 238.334 209.147C240.034 209.771 241.757 210.082 243.502 210.082C244.888 210.082 246.007 209.771 246.857 209.147C247.707 208.524 248.132 207.655 248.132 206.541C248.132 205.562 247.729 204.782 246.924 204.203C246.119 203.669 244.195 203 241.153 202.199C236.634 201.041 233.436 199.459 231.557 197.455C229.901 195.673 229.074 193.469 229.074 190.841C229.074 188.747 229.7 186.921 230.953 185.362C232.205 183.759 233.861 182.512 235.919 181.621C237.976 180.73 240.213 180.285 242.629 180.285C245.403 180.285 248.02 180.775 250.481 181.754C252.941 182.734 254.999 184.071 256.654 185.763L251.688 191.175C250.436 190.017 248.982 189.059 247.327 188.302C245.716 187.5 244.217 187.099 242.83 187.099C239.609 187.099 237.999 188.213 237.999 190.44C238.044 191.509 238.536 192.355 239.475 192.979C240.37 193.602 242.405 194.337 245.582 195.184C249.832 196.297 252.829 197.767 254.574 199.593C256.095 201.152 256.856 203.223 256.856 205.807C256.856 207.944 256.229 209.86 254.977 211.552C253.769 213.245 252.113 214.581 250.011 215.561C247.908 216.496 245.537 216.964 242.898 216.964Z" fill="black"/>
<path d="M261.377 228V181.02H269.234L270.369 185.295C271.533 183.87 273.121 182.69 275.134 181.754C277.147 180.819 279.272 180.351 281.509 180.351C284.596 180.351 287.347 181.131 289.763 182.69C292.179 184.249 294.08 186.409 295.467 189.171C296.854 191.932 297.547 195.072 297.547 198.591C297.547 202.11 296.854 205.25 295.467 208.011C294.08 210.773 292.179 212.955 289.763 214.559C287.347 216.118 284.596 216.897 281.509 216.897C279.406 216.897 277.371 216.474 275.402 215.628C273.434 214.737 271.846 213.623 270.638 212.287V224.011L261.377 228ZM279.496 209.013C282.225 209.013 284.439 208.056 286.139 206.141C287.839 204.181 288.689 201.664 288.689 198.591C288.689 195.562 287.839 193.09 286.139 191.175C284.439 189.215 282.225 188.235 279.496 188.235C276.767 188.235 274.552 189.193 272.852 191.108C271.152 193.023 270.302 195.518 270.302 198.591C270.302 201.664 271.152 204.181 272.852 206.141C274.552 208.056 276.767 209.013 279.496 209.013Z" fill="black"/>
<path d="M320.26 216.964C316.457 216.964 313.125 216.185 310.261 214.626C307.398 213.067 305.161 210.929 303.551 208.212C301.985 205.495 301.202 202.377 301.202 198.858C301.202 195.206 301.963 191.999 303.484 189.237C305.049 186.431 307.174 184.226 309.859 182.623C312.588 181.02 315.719 180.218 319.254 180.218C322.43 180.218 325.271 180.997 327.776 182.556C330.326 184.071 332.295 186.142 333.681 188.77C335.113 191.398 335.784 194.404 335.695 197.789L335.627 200.662H310.127C310.619 203.201 311.827 205.205 313.751 206.675C315.719 208.145 318.202 208.88 321.2 208.88C322.81 208.88 324.264 208.635 325.562 208.145C326.904 207.655 328.335 206.786 329.856 205.539L334.285 211.686C332.362 213.378 330.147 214.692 327.642 215.628C325.181 216.519 322.721 216.964 320.26 216.964ZM319.321 188.102C314.265 188.102 311.223 190.373 310.194 194.916H326.971V194.649C326.837 192.734 326.031 191.175 324.555 189.972C323.123 188.725 321.379 188.102 319.321 188.102Z" fill="black"/>
<path d="M356.829 216.964C353.473 216.964 350.454 216.162 347.769 214.559C345.13 212.955 343.027 210.773 341.461 208.011C339.94 205.25 339.18 202.11 339.18 198.591C339.18 195.117 339.94 191.999 341.461 189.237C343.027 186.476 345.13 184.293 347.769 182.69C350.454 181.086 353.473 180.285 356.829 180.285C360.005 180.285 362.891 180.864 365.485 182.022C368.125 183.18 370.183 184.805 371.659 186.899L366.626 192.912C365.687 191.62 364.389 190.529 362.734 189.638C361.079 188.703 359.401 188.235 357.701 188.235C355.822 188.235 354.145 188.703 352.668 189.638C351.237 190.529 350.096 191.754 349.246 193.313C348.441 194.872 348.038 196.631 348.038 198.591C348.038 200.551 348.463 202.31 349.313 203.869C350.163 205.428 351.326 206.675 352.802 207.61C354.279 208.501 355.934 208.947 357.768 208.947C359.513 208.947 361.124 208.568 362.6 207.811C364.076 207.009 365.418 205.896 366.626 204.47L371.659 210.483C370.138 212.443 368.035 214.024 365.351 215.227C362.667 216.385 359.826 216.964 356.829 216.964Z" fill="black"/>
<path d="M383.975 216.296C379.557 216.296 375.975 212.714 375.975 208.296V189.237V181.02V175.989L385.102 172V181.02H392V189.237H385.102V206C385.102 207.105 385.997 208 387.102 208H392V216.296H383.975Z" fill="black"/>
<path d="M397.355 216.296V181.02H405.212L406.347 186.832C407.511 184.917 409.032 183.358 410.911 182.155C412.834 180.908 414.848 180.285 416.95 180.285C417.755 180.285 418.494 180.351 419.165 180.485C419.88 180.574 420.484 180.708 420.977 180.886L418.494 190.908C418.001 190.64 417.375 190.418 416.615 190.239C415.854 190.061 415.094 189.972 414.333 189.972C412.141 189.972 410.284 190.729 408.763 192.244C407.287 193.714 406.549 195.584 406.549 197.856V216.296H397.355Z" fill="black"/>
<path d="M437.398 216.964C434.446 216.964 431.784 216.162 429.413 214.559C427.042 212.955 425.14 210.773 423.709 208.011C422.322 205.25 421.628 202.11 421.628 198.591C421.628 194.983 422.322 191.821 423.709 189.104C425.14 186.342 427.064 184.182 429.48 182.623C431.94 181.064 434.714 180.285 437.801 180.285C440.306 180.285 442.498 180.797 444.377 181.821C446.256 182.801 447.755 184.093 448.874 185.696V181.02H458V216.296H449.808L448.806 211.552C447.554 213.111 445.921 214.403 443.908 215.427C441.939 216.452 439.77 216.964 437.398 216.964ZM439.881 209.013C442.61 209.013 444.825 208.056 446.525 206.141C448.225 204.225 449.075 201.709 449.075 198.591C449.075 195.473 448.225 192.956 446.525 191.041C444.825 189.126 442.61 188.168 439.881 188.168C437.197 188.168 435.005 189.126 433.305 191.041C431.65 192.956 430.822 195.473 430.822 198.591C430.822 201.709 431.65 204.225 433.305 206.141C435.005 208.056 437.197 209.013 439.881 209.013Z" fill="black"/>
</svg>
