<?xml version="1.0" encoding="UTF-8" standalone="no"?>
<!DOCTYPE svg PUBLIC "-//W3C//DTD SVG 1.1//EN" "http://www.w3.org/Graphics/SVG/1.1/DTD/svg11.dtd">
<svg width="100%" height="100%" viewBox="0 0 130 120" version="1.1" xmlns="http://www.w3.org/2000/svg" xmlns:xlink="http://www.w3.org/1999/xlink" xml:space="preserve" xmlns:serif="http://www.serif.com/" style="fill-rule:evenodd;clip-rule:evenodd;stroke-linejoin:round;stroke-miterlimit:2;">
    <g transform="matrix(1.17813,0,0,1.17813,-10.6032,-15.4004)">
        <rect x="49.557" y="45.235" width="60.668" height="42.982" style="fill:rgb(210,220,228);"/>
        <g transform="matrix(0.851855,0,0,0.851855,-1436.24,-1565.74)">
            <path d="M1820.39,1972.95L1820.39,1969.64L1738.36,1969.64C1737.25,1969.64 1736.35,1968.74 1736.35,1967.63L1736.35,1885.6C1736.35,1884.49 1737.25,1883.6 1738.36,1883.59L1820.39,1883.59C1821.5,1883.6 1822.4,1884.49 1822.4,1885.6L1822.4,1967.63C1822.4,1968.74 1821.5,1969.64 1820.39,1969.64L1820.39,1972.95C1823.33,1972.95 1825.71,1970.57 1825.71,1967.63L1825.71,1885.6C1825.71,1882.66 1823.33,1880.28 1820.39,1880.28L1738.36,1880.28C1735.42,1880.28 1733.04,1882.66 1733.04,1885.6L1733.04,1967.63C1733.04,1970.57 1735.42,1972.95 1738.36,1972.95L1820.39,1972.95Z" style="fill:rgb(58,73,85);fill-rule:nonzero;"/>
            <path d="M1743.97,1941.51L1745.63,1941.51L1745.63,1892.87L1813.13,1892.87L1813.13,1939.85L1743.97,1939.85L1743.97,1941.51L1745.63,1941.51L1743.97,1941.51L1743.97,1943.17L1814.78,1943.17C1815.22,1943.17 1815.65,1942.99 1815.95,1942.68C1816.26,1942.37 1816.44,1941.95 1816.44,1941.51L1816.44,1891.21C1816.44,1890.78 1816.26,1890.35 1815.95,1890.04C1815.65,1889.73 1815.22,1889.55 1814.78,1889.55L1743.97,1889.55C1743.53,1889.55 1743.11,1889.73 1742.8,1890.04C1742.49,1890.35 1742.31,1890.78 1742.31,1891.21L1742.31,1941.51C1742.31,1941.95 1742.49,1942.37 1742.8,1942.68C1743.11,1942.99 1743.53,1943.17 1743.97,1943.17L1743.97,1941.51Z" style="fill:rgb(58,73,85);fill-rule:nonzero;"/>
            <path d="M1727.46,1959.33L1725.48,1959.86C1725.08,1959.96 1724.69,1960.01 1724.31,1960.01C1723.31,1960.01 1722.35,1959.68 1721.57,1959.09C1720.8,1958.5 1720.21,1957.67 1719.94,1956.66L1700.05,1882.27C1699.94,1881.88 1699.89,1881.49 1699.89,1881.1C1699.89,1880.1 1700.23,1879.15 1700.82,1878.37C1701.41,1877.59 1702.24,1877 1703.25,1876.73L1777.64,1856.84C1778.03,1856.74 1778.42,1856.69 1778.81,1856.69C1779.8,1856.69 1780.76,1857.02 1781.54,1857.61C1782.32,1858.2 1782.9,1859.03 1783.18,1860.05L1787.05,1874.54C1787.29,1875.42 1788.19,1875.94 1789.08,1875.71C1789.96,1875.47 1790.49,1874.56 1790.25,1873.68L1786.38,1859.19C1785.91,1857.45 1784.88,1855.98 1783.54,1854.97C1782.2,1853.96 1780.54,1853.38 1778.81,1853.38C1778.14,1853.38 1777.45,1853.46 1776.78,1853.64L1702.4,1873.53C1700.65,1874 1699.19,1875.03 1698.17,1876.37C1697.16,1877.71 1696.58,1879.36 1696.58,1881.1C1696.58,1881.77 1696.67,1882.45 1696.85,1883.13L1716.74,1957.51C1717.2,1959.26 1718.23,1960.72 1719.57,1961.73C1720.91,1962.75 1722.57,1963.33 1724.31,1963.33C1724.98,1963.33 1725.66,1963.24 1726.33,1963.06L1728.31,1962.53C1729.2,1962.29 1729.72,1961.39 1729.49,1960.5C1729.25,1959.62 1728.34,1959.09 1727.46,1959.33Z" style="fill:rgb(58,73,85);fill-rule:nonzero;"/>
            <path d="M1728,1928.35L1722.37,1929.86L1710.23,1884.46L1775.44,1867.03L1777.88,1876.12C1778.11,1877 1779.02,1877.53 1779.9,1877.29C1780.79,1877.06 1781.31,1876.15 1781.08,1875.27L1778.22,1864.57C1777.98,1863.69 1777.07,1863.17 1776.19,1863.4L1707.78,1881.69C1706.9,1881.93 1706.37,1882.84 1706.61,1883.72L1719.6,1932.31C1719.71,1932.73 1719.99,1933.1 1720.37,1933.32C1720.75,1933.54 1721.21,1933.6 1721.63,1933.49L1728.86,1931.55C1729.74,1931.32 1730.27,1930.41 1730.03,1929.52C1729.79,1928.64 1728.89,1928.12 1728,1928.35Z" style="fill:rgb(53,143,216);fill-rule:nonzero;"/>
        </g>
    </g>
</svg>
