<?xml version="1.0" encoding="UTF-8" standalone="no"?>
<!DOCTYPE svg PUBLIC "-//W3C//DTD SVG 1.1//EN" "http://www.w3.org/Graphics/SVG/1.1/DTD/svg11.dtd">
<svg width="100%" height="100%" viewBox="0 0 59 14" version="1.1" xmlns="http://www.w3.org/2000/svg" xmlns:xlink="http://www.w3.org/1999/xlink" xml:space="preserve" xmlns:serif="http://www.serif.com/" style="fill-rule:evenodd;clip-rule:evenodd;stroke-linejoin:round;stroke-miterlimit:2;">
    <g transform="matrix(0.492663,0,0,0.492663,-220.652,-391.166)">
        <clipPath id="_clip1">
            <rect x="447.88" y="798" width="11.125" height="11"/>
        </clipPath>
        <g clip-path="url(#_clip1)">
            <path d="M451.26,803.16C451.26,803.711 451.448,804.176 451.823,804.562C452.201,804.949 452.662,805.141 453.201,805.141C453.744,805.141 454.205,804.949 454.584,804.562C454.959,804.176 455.147,803.711 455.147,803.16C455.147,802.613 454.959,802.144 454.584,801.758C454.205,801.371 453.744,801.18 453.201,801.18C452.662,801.18 452.201,801.371 451.823,801.758C451.448,802.144 451.26,802.613 451.26,803.16M455.104,807.512L455.104,807.348C454.787,807.648 454.436,807.875 454.041,808.027C453.647,808.176 453.213,808.254 452.752,808.254C451.377,808.254 450.221,807.762 449.283,806.777C448.346,805.797 447.877,804.59 447.877,803.16C447.877,801.73 448.346,800.527 449.283,799.543C450.221,798.558 451.377,798.07 452.752,798.07C453.213,798.07 453.647,798.144 454.041,798.293C454.436,798.445 454.787,798.668 455.104,798.965L455.104,798.793C455.104,798.66 455.147,798.551 455.229,798.465C455.315,798.383 455.424,798.34 455.553,798.34L458.014,798.34C458.147,798.34 458.256,798.383 458.342,798.465C458.424,798.551 458.467,798.66 458.467,798.793L458.467,807.512C458.467,807.637 458.424,807.746 458.334,807.836C458.248,807.926 458.147,807.973 458.026,807.973L455.573,807.973C455.448,807.973 455.338,807.926 455.244,807.836C455.151,807.746 455.104,807.637 455.104,807.512" style="fill:rgb(25,48,63);fill-rule:nonzero;"/>
        </g>
    </g>
    <g transform="matrix(0.0369506,0,0,0.0369506,0.00566425,-0.0069814)">
        <path d="M220.05,150.36C225.935,150.36 230.362,148.693 233.383,145.308C236.404,141.922 237.914,136.974 237.914,130.464L237.914,63.537C237.914,62.078 238.539,60.828 239.841,59.735C241.144,58.641 242.602,58.12 244.216,58.12L276.612,58.12C278.227,58.12 279.685,58.64 280.987,59.735C282.237,60.828 282.914,62.078 282.914,63.537L282.914,136.506C282.914,152.183 277.237,165.099 265.883,175.203C254.581,185.36 239.372,190.412 220.31,190.412C201.091,190.412 185.675,185.308 174.008,175.099C162.341,164.891 156.508,152.026 156.508,136.506L156.508,63.537C156.508,62.078 157.133,60.828 158.384,59.735C159.633,58.641 161.04,58.12 162.654,58.12L195.102,58.12C196.717,58.12 198.175,58.64 199.529,59.735C200.832,60.828 201.509,62.078 201.509,63.537L201.509,130.464C201.509,136.818 203.123,141.714 206.3,145.203C209.529,148.641 214.113,150.36 220.05,150.36" style="fill:rgb(25,48,63);fill-rule:nonzero;"/>
    </g>
    <g transform="matrix(0.0369506,0,0,0.0369506,0.00566425,-0.0069814)">
        <path d="M356.56,189.11C342.498,189.11 331.3,185.412 322.862,178.068C314.477,170.672 310.258,160.516 310.258,147.495L310.258,95.256L297.029,95.256C295.415,95.256 294.008,94.686 292.862,93.433C291.717,92.234 291.092,90.776 291.092,89.006L291.092,79.735C291.092,76.974 291.352,74.787 291.873,73.068C292.394,71.401 293.383,69.787 294.737,68.224L326.664,32.808C329.425,29.839 331.664,27.86 333.487,27.026C335.31,26.136 337.654,25.672 340.518,25.672L349.112,25.672C350.779,25.672 352.237,26.242 353.383,27.443C354.58,28.588 355.154,29.995 355.154,31.714L355.154,58.12L383.383,58.12C385.049,58.12 386.508,58.69 387.706,59.891C388.904,61.036 389.528,62.443 389.528,64.162L389.528,89.006C389.528,90.776 388.903,92.235 387.706,93.433C386.508,94.682 385.049,95.256 383.383,95.256L355.154,95.256L355.154,138.068C355.154,141.193 355.987,143.693 357.654,145.464C359.372,147.287 361.664,148.224 364.529,148.224C366.247,148.224 368.018,147.864 369.945,147.183C371.925,146.503 374.112,145.412 376.612,143.954C379.112,142.547 381.195,142.027 382.914,142.443C384.685,142.803 386.3,144.11 387.81,146.297L399.164,163.277C400.413,165.204 401.039,167.131 400.935,169.058C400.885,170.985 400.102,172.704 398.695,174.11C394.112,178.797 388.018,182.443 380.518,185.1C373.018,187.756 365.049,189.11 356.56,189.11" style="fill:rgb(25,48,63);fill-rule:nonzero;"/>
    </g>
    <g transform="matrix(0.0369506,0,0,0.0369506,0.00566425,-0.0069814)">
        <path d="M475.47,93.438C469.376,93.438 464.376,95.365 460.418,99.167C456.46,103.021 454.533,108.125 454.533,114.583L454.533,180.521C454.533,182.292 453.96,183.75 452.814,184.896C451.721,185.989 450.262,186.563 448.491,186.563L415.679,186.563C413.908,186.563 412.45,185.993 411.356,184.896C410.211,183.751 409.637,182.292 409.637,180.521L409.637,10.991C409.637,9.22 410.21,7.762 411.356,6.616C412.449,5.522 413.908,4.949 415.679,4.949L448.491,4.949C450.262,4.949 451.72,5.519 452.814,6.616C453.959,7.761 454.533,9.22 454.533,10.991L454.533,73.439C458.595,67.241 463.803,62.553 470.158,59.324C476.46,56.095 483.7,54.48 491.877,54.48C508.075,54.48 520.315,59.324 528.596,68.907C536.929,78.543 541.096,92.501 541.096,110.834L541.096,180.522C541.096,182.293 540.523,183.751 539.429,184.897C538.284,185.99 536.825,186.564 535.054,186.564L502.294,186.564C500.471,186.564 499.065,185.994 497.919,184.897C496.826,183.752 496.252,182.293 496.252,180.522L496.252,114.584C496.252,108.126 494.325,103.022 490.471,99.168C486.565,95.366 481.617,93.439 475.471,93.439" style="fill:rgb(25,48,63);fill-rule:nonzero;"/>
    </g>
    <g transform="matrix(0.0369506,0,0,0.0369506,0.00566425,-0.0069814)">
        <path d="M597.19,122.4C597.19,129.744 599.69,135.942 604.69,141.098C609.742,146.254 615.888,148.806 623.075,148.806C630.315,148.806 636.46,146.254 641.513,141.098C646.513,135.942 649.013,129.744 649.013,122.4C649.013,115.108 646.513,108.858 641.513,103.702C636.461,98.546 630.315,95.994 623.075,95.994C615.888,95.994 609.742,98.546 604.69,103.702C599.69,108.858 597.19,115.108 597.19,122.4M552.086,122.4C552.086,103.598 559.013,87.556 572.815,74.327C586.669,61.15 603.388,54.535 623.075,54.535C642.815,54.535 659.585,61.15 673.387,74.327C687.241,87.556 694.116,103.598 694.116,122.4C694.116,141.202 687.241,157.244 673.387,170.473C659.585,183.702 642.814,190.317 623.075,190.317C603.388,190.317 586.669,183.702 572.815,170.473C559.013,157.244 552.086,141.202 552.086,122.4" style="fill:rgb(25,48,63);fill-rule:nonzero;"/>
    </g>
    <g transform="matrix(0.0369506,0,0,0.0369506,0.00566425,-0.0069814)">
        <path d="M712.6,58.125L735.986,58.125C738.538,58.125 740.726,58.695 742.549,59.948C744.371,61.145 745.83,62.969 746.976,65.365L750.569,73.438C755.309,67.813 760.205,63.49 765.204,60.521C770.257,57.552 775.152,56.094 779.996,56.094C785.205,56.094 789.163,57.239 791.871,59.531C794.58,61.823 795.621,65.052 795.049,69.323L791.455,98.646C790.987,102.031 789.892,104.531 788.173,106.25C786.507,107.917 784.215,108.802 781.299,108.802C780.362,108.802 779.319,108.642 778.278,108.492C777.236,108.282 775.673,107.872 773.59,107.347C771.299,106.617 769.528,106.148 768.33,105.941C767.184,105.731 766.038,105.631 764.944,105.631C760.83,105.631 757.496,106.828 755.049,109.276C752.549,111.672 751.299,114.953 751.299,119.172L751.299,181.151C751.299,182.558 750.674,183.86 749.423,184.953C748.174,186.047 746.767,186.568 745.153,186.568L712.445,186.568C710.674,186.568 709.268,185.998 708.122,184.849C706.976,183.756 706.455,182.349 706.455,180.631L706.455,64.171C706.455,62.452 707.028,61.046 708.174,59.848C709.319,58.703 710.83,58.13 712.601,58.13" style="fill:rgb(25,48,63);fill-rule:nonzero;"/>
    </g>
    <g transform="matrix(0.492663,0,0,0.492663,-220.652,-391.166)">
        <path d="M511.8,795.82C511.8,796.316 511.616,796.742 511.245,797.101C510.874,797.461 510.433,797.636 509.921,797.636C509.405,797.636 508.964,797.461 508.589,797.101C508.214,796.742 508.031,796.316 508.031,795.82C508.031,795.324 508.214,794.894 508.589,794.531C508.964,794.168 509.406,793.984 509.921,793.984C510.433,793.984 510.874,794.168 511.245,794.531C511.616,794.894 511.8,795.324 511.8,795.82" style="fill:rgb(0,115,255);fill-rule:nonzero;"/>
    </g>
    <g transform="matrix(0.0369506,0,0,0.0369506,0.00566425,-0.0069814)">
        <path d="M974.74,93.229L923.854,148.177L974.531,148.177C976.198,148.177 977.604,148.807 978.75,149.896C979.843,151.041 980.416,152.448 980.416,154.115L980.416,180.625C980.416,182.344 979.843,183.75 978.75,184.844C977.604,185.989 976.198,186.563 974.531,186.563L869.221,186.563C867.554,186.563 866.096,185.933 864.846,184.74C863.597,183.542 862.971,182.083 862.971,180.417L862.971,158.594C862.971,157.031 863.179,155.781 863.596,154.74C863.96,153.698 864.689,152.604 865.732,151.615L917.711,96.458L871.201,96.458C869.482,96.458 868.024,95.888 866.826,94.688C865.628,93.438 865.003,91.979 865.003,90.313L865.003,64.375C865.003,62.708 865.628,61.25 866.878,60C868.127,58.751 869.586,58.125 871.201,58.125L971.411,58.125C973.077,58.125 974.536,58.745 975.734,60C976.931,61.249 977.556,62.708 977.556,64.375L977.556,86.094C977.556,87.604 977.348,88.906 976.931,89.948C976.515,90.989 975.786,92.083 974.744,93.229" style="fill:rgb(25,48,63);fill-rule:nonzero;"/>
    </g>
    <g transform="matrix(0.0369506,0,0,0.0369506,0.00566425,-0.0069814)">
        <path d="M1032.5,105.78L1075.1,105.78C1074.22,100.78 1071.82,96.718 1067.92,93.593C1064.01,90.416 1059.48,88.853 1054.22,88.853C1049.06,88.853 1044.48,90.416 1040.42,93.593C1036.35,96.718 1033.75,100.78 1032.5,105.78M1113.23,165.572C1108.07,173.072 1100.36,179.062 1090.16,183.541C1079.95,188.02 1068.8,190.312 1056.67,190.312C1036.14,190.312 1019.32,183.905 1006.2,171.197C993.02,158.437 986.457,142.395 986.457,123.02C986.457,102.916 992.655,86.457 1004.95,73.697C1017.29,60.884 1033.49,54.478 1053.49,54.478C1072.81,54.478 1088.49,60.624 1100.52,72.916C1112.6,85.155 1118.64,100.207 1118.64,118.072L1118.64,125.416C1118.64,128.228 1118.02,130.468 1116.82,132.187C1115.62,133.853 1113.9,134.687 1111.61,134.687L1031.56,134.687C1032.76,140.624 1035.68,145.364 1040.36,148.801C1045,152.239 1050.68,154.01 1057.24,154.01C1061.67,154.01 1065.73,153.18 1069.48,151.562C1073.23,149.947 1076.82,147.447 1080.26,143.957C1081.82,142.447 1083.38,141.614 1085.05,141.457C1086.72,141.297 1088.38,141.767 1090.15,142.916L1111.87,157.134C1113.38,158.124 1114.27,159.374 1114.48,160.989C1114.69,162.603 1114.22,164.114 1113.23,165.572" style="fill:rgb(25,48,63);fill-rule:nonzero;"/>
    </g>
    <g transform="matrix(0.0369506,0,0,0.0369506,0.00566425,-0.0069814)">
        <path d="M1185.7,161.46C1185.7,169.377 1182.89,176.148 1177.21,181.773C1171.53,187.45 1164.71,190.315 1156.74,190.315C1148.88,190.315 1142.11,187.45 1136.48,181.773C1130.86,176.148 1128.04,169.377 1128.04,161.46C1128.04,153.492 1130.86,146.721 1136.48,141.096C1142.11,135.471 1148.88,132.658 1156.74,132.658C1164.71,132.658 1171.53,135.471 1177.21,141.096C1182.89,146.721 1185.7,153.492 1185.7,161.46" style="fill:rgb(255,194,0);fill-rule:nonzero;"/>
    </g>
    <g transform="matrix(0.0369506,0,0,0.0369506,0.00566425,-0.0069814)">
        <path d="M1265.1,93.438C1258.95,93.438 1253.95,95.365 1250,99.167C1246.09,103.021 1244.11,108.125 1244.11,114.583L1244.11,180.521C1244.11,182.292 1243.54,183.75 1242.39,184.896C1241.3,185.989 1239.84,186.563 1238.07,186.563L1205.26,186.563C1203.49,186.563 1202.08,185.993 1200.93,184.896C1199.79,183.751 1199.21,182.292 1199.21,180.521L1199.21,64.171C1199.21,62.4 1199.79,60.942 1200.93,59.796C1202.08,58.702 1203.49,58.129 1205.26,58.129L1238.07,58.129C1239.84,58.129 1241.3,58.699 1242.39,59.796C1243.54,60.941 1244.11,62.4 1244.11,64.171L1244.11,73.442C1248.23,67.244 1253.38,62.556 1259.74,59.327C1266.04,56.098 1273.28,54.483 1281.45,54.483C1297.65,54.483 1309.89,59.327 1318.23,68.91C1326.51,78.546 1330.67,92.504 1330.67,110.837L1330.67,180.525C1330.67,182.296 1330.1,183.754 1329.01,184.9C1327.86,185.993 1326.4,186.567 1324.63,186.567L1291.87,186.567C1290.1,186.567 1288.64,185.997 1287.5,184.9C1286.4,183.755 1285.83,182.296 1285.83,180.525L1285.83,114.587C1285.83,108.129 1283.9,103.025 1280.05,99.171C1276.19,95.369 1271.19,93.442 1265.1,93.442" style="fill:rgb(25,48,63);fill-rule:nonzero;"/>
    </g>
    <g transform="matrix(0.0369506,0,0,0.0369506,0.00566425,-0.0069814)">
        <path d="M1387.9,105.78L1430.45,105.78C1429.57,100.78 1427.17,96.718 1423.32,93.593C1419.41,90.416 1414.83,88.853 1409.62,88.853C1404.46,88.853 1399.88,90.416 1395.82,93.593C1391.75,96.718 1389.1,100.78 1387.9,105.78M1468.58,165.572C1463.42,173.072 1455.77,179.062 1445.56,183.541C1435.35,188.02 1424.15,190.312 1412.01,190.312C1391.49,190.312 1374.67,183.905 1361.55,171.197C1348.42,158.437 1341.86,142.395 1341.86,123.02C1341.86,102.916 1348,86.457 1360.35,73.697C1372.69,60.884 1388.84,54.478 1408.89,54.478C1428.16,54.478 1443.84,60.624 1455.92,72.916C1467.95,85.155 1473.99,100.207 1473.99,118.072L1473.99,125.416C1473.99,128.228 1473.42,130.468 1472.17,132.187C1470.97,133.853 1469.25,134.687 1467.01,134.687L1386.96,134.687C1388.16,140.624 1391.08,145.364 1395.76,148.801C1400.4,152.239 1406.02,154.01 1412.64,154.01C1417.07,154.01 1421.13,153.18 1424.88,151.562C1428.63,149.947 1432.17,147.447 1435.66,143.957C1437.17,142.447 1438.79,141.614 1440.4,141.457C1442.07,141.297 1443.79,141.767 1445.56,142.916L1467.22,157.134C1468.79,158.124 1469.67,159.374 1469.83,160.989C1470.04,162.603 1469.62,164.114 1468.58,165.572" style="fill:rgb(25,48,63);fill-rule:nonzero;"/>
    </g>
    <g transform="matrix(0.492663,0,0,0.492663,-220.652,-391.166)">
        <path d="M563.6,808.17C562.545,808.17 561.702,807.893 561.073,807.342C560.44,806.787 560.127,806.025 560.127,805.049L560.127,801.131L559.131,801.131C559.01,801.131 558.905,801.088 558.819,800.994C558.733,800.904 558.686,800.795 558.686,800.662L558.686,799.967C558.686,799.76 558.705,799.596 558.748,799.467C558.788,799.342 558.858,799.221 558.959,799.104L561.354,796.447C561.561,796.225 561.729,796.076 561.866,796.014C562.002,795.947 562.178,795.912 562.397,795.912L563.038,795.912C563.166,795.912 563.272,795.955 563.358,796.045C563.448,796.131 563.491,796.236 563.491,796.365L563.491,798.346L565.608,798.346C565.733,798.346 565.842,798.389 565.932,798.479C566.022,798.564 566.069,798.67 566.069,798.799L566.069,800.662C566.069,800.795 566.022,800.904 565.932,800.994C565.842,801.088 565.733,801.131 565.608,801.131L563.491,801.131L563.491,804.342C563.491,804.576 563.553,804.764 563.678,804.897C563.807,805.033 563.979,805.104 564.198,805.104C564.323,805.104 564.459,805.076 564.604,805.025C564.748,804.975 564.913,804.893 565.1,804.783C565.288,804.678 565.444,804.639 565.577,804.67C565.705,804.697 565.827,804.795 565.94,804.959L566.791,806.232C566.889,806.377 566.932,806.522 566.928,806.666C566.92,806.811 566.866,806.939 566.756,807.045C566.413,807.397 565.959,807.67 565.393,807.869C564.83,808.068 564.233,808.17 563.6,808.17" style="fill:rgb(25,48,63);fill-rule:nonzero;"/>
    </g>
    <g transform="matrix(0.492663,0,0,0.492663,-220.652,-391.166)">
        <path d="M512.31,820.32C512.29,820.386 512.271,820.418 512.201,820.418L511.302,820.418C511.232,820.418 511.212,820.386 511.193,820.32L508.802,813.652C508.783,813.586 508.81,813.554 508.88,813.554L509.642,813.554C509.712,813.554 509.744,813.586 509.763,813.652L511.751,819.437L513.744,813.652C513.763,813.586 513.791,813.554 513.861,813.554L514.623,813.554C514.693,813.554 514.724,813.586 514.705,813.652L512.31,820.32Z" style="fill:rgb(30,40,66);fill-rule:nonzero;"/>
    </g>
    <g transform="matrix(0.492663,0,0,0.492663,-220.652,-391.166)">
        <path d="M515.54,813.65C515.54,813.584 515.571,813.552 515.638,813.552L516.481,813.552C516.548,813.552 516.579,813.583 516.579,813.65L516.579,814.494C516.579,814.564 516.548,814.591 516.481,814.591L515.638,814.591C515.571,814.591 515.54,814.564 515.54,814.494L515.54,813.65ZM515.677,815.591C515.677,815.521 515.708,815.494 515.774,815.494L516.345,815.494C516.411,815.494 516.442,815.521 516.442,815.591L516.442,820.318C516.442,820.384 516.411,820.416 516.345,820.416L515.774,820.416C515.708,820.416 515.677,820.384 515.677,820.318L515.677,815.591Z" style="fill:rgb(30,40,66);fill-rule:nonzero;"/>
    </g>
    <g transform="matrix(0.492663,0,0,0.492663,-220.652,-391.166)">
        <path d="M519.51,820.51C518.366,820.51 517.444,819.834 517.444,818.912C517.444,818.854 517.471,818.815 517.541,818.815L518.166,818.815C518.236,818.815 518.256,818.842 518.268,818.912C518.346,819.483 518.807,819.783 519.541,819.783C520.197,819.783 520.678,819.58 520.678,819.069C520.678,818.561 520.244,818.381 519.244,818.225C518.068,818.041 517.568,817.658 517.568,816.795C517.568,815.893 518.393,815.393 519.432,815.393C520.529,815.393 521.205,815.951 521.326,816.803C521.326,816.862 521.295,816.901 521.229,816.901L520.678,816.901C520.607,816.901 520.6,816.873 520.58,816.803C520.432,816.323 519.932,816.119 519.404,816.119C518.775,816.119 518.334,816.334 518.334,816.776C518.334,817.256 518.729,817.42 519.717,817.6C520.658,817.764 521.482,818.041 521.482,818.971C521.482,819.959 520.658,820.51 519.51,820.51" style="fill:rgb(30,40,66);fill-rule:nonzero;"/>
    </g>
    <g transform="matrix(0.492663,0,0,0.492663,-220.652,-391.166)">
        <path d="M522.68,816.95C522.641,816.95 522.61,816.931 522.61,816.891C522.61,816.872 522.61,816.833 522.621,816.794C522.817,816.048 523.453,815.391 524.602,815.391C525.739,815.391 526.551,816.079 526.551,817.106L526.551,819.47C526.551,819.938 526.59,820.079 526.719,820.313C526.727,820.333 526.739,820.341 526.739,820.36C526.739,820.399 526.707,820.411 526.66,820.411L525.887,820.411C525.817,820.411 525.789,820.38 525.789,820.313L525.789,819.802C525.473,820.235 524.875,820.509 524.18,820.509C523.328,820.509 522.414,820.001 522.414,818.95C522.414,817.86 523.297,817.313 524.407,817.313C524.895,817.313 525.375,817.411 525.789,817.528L525.789,817.255C525.789,816.52 525.356,816.114 524.602,816.114C524.024,816.114 523.629,816.392 523.442,816.86C523.414,816.938 523.368,816.95 523.305,816.95L522.68,816.95ZM524.453,818.04C523.758,818.04 523.219,818.294 523.219,818.899C523.219,819.469 523.61,819.782 524.266,819.782C525.09,819.782 525.789,819.243 525.789,818.255C525.387,818.118 524.973,818.04 524.453,818.04" style="fill:rgb(30,40,66);fill-rule:nonzero;"/>
    </g>
    <g transform="matrix(0.492663,0,0,0.492663,-220.652,-391.166)">
        <path d="M532.66,813.45C534.141,813.45 534.984,814.36 535.012,815.36C535.012,815.431 534.984,815.462 534.914,815.462L534.285,815.462C534.219,815.462 534.191,815.431 534.191,815.36C534.148,814.684 533.484,814.235 532.66,814.235C531.828,814.235 531.18,814.606 531.18,815.243C531.18,815.977 531.965,816.255 532.992,816.528C534.246,816.86 535.238,817.321 535.238,818.411C535.238,819.821 534.191,820.509 532.707,820.509C531.285,820.509 530.18,819.626 530.18,818.333C530.18,818.263 530.207,818.235 530.277,818.235L530.906,818.235C530.973,818.235 531.004,818.263 531.004,818.333C531.031,819.126 531.688,819.724 532.707,819.724C533.77,819.724 534.414,819.333 534.414,818.462C534.414,817.774 533.57,817.509 532.621,817.263C531.277,816.923 530.356,816.438 530.356,815.282C530.356,814.075 531.434,813.45 532.66,813.45" style="fill:rgb(30,40,66);fill-rule:nonzero;"/>
    </g>
    <g transform="matrix(0.492663,0,0,0.492663,-220.652,-391.166)">
        <path d="M538.6,815.39C540.01,815.39 541.1,816.39 541.1,817.949C541.1,819.507 540.01,820.507 538.6,820.507C537.186,820.507 536.1,819.507 536.1,817.949C536.1,816.39 537.186,815.39 538.6,815.39M538.6,819.781C539.608,819.781 540.295,819.046 540.295,817.949C540.295,816.851 539.608,816.117 538.6,816.117C537.588,816.117 536.905,816.851 536.905,817.949C536.905,819.046 537.588,819.781 538.6,819.781" style="fill:rgb(30,40,66);fill-rule:nonzero;"/>
    </g>
    <g transform="matrix(0.492663,0,0,0.492663,-220.652,-391.166)">
        <path d="M542.22,813.65C542.22,813.584 542.251,813.552 542.318,813.552L542.888,813.552C542.954,813.552 542.986,813.583 542.986,813.65L542.986,820.318C542.986,820.384 542.955,820.416 542.888,820.416L542.318,820.416C542.251,820.416 542.22,820.384 542.22,820.318L542.22,813.65Z" style="fill:rgb(30,40,66);fill-rule:nonzero;"/>
    </g>
    <g transform="matrix(0.492663,0,0,0.492663,-220.652,-391.166)">
        <clipPath id="_clip2">
            <rect x="544" y="815" width="5" height="5.512"/>
        </clipPath>
        <g clip-path="url(#_clip2)">
            <path d="M548.39,820.32C548.39,820.386 548.363,820.418 548.292,820.418L547.722,820.418C547.656,820.418 547.624,820.386 547.624,820.32L547.624,819.761C547.245,820.222 546.695,820.515 545.999,820.515C544.968,820.515 544.292,819.879 544.292,818.73L544.292,815.593C544.292,815.527 544.323,815.496 544.39,815.496L544.96,815.496C545.027,815.496 545.058,815.527 545.058,815.593L545.058,818.613C545.058,819.406 545.468,819.789 546.175,819.789C546.999,819.789 547.624,819.191 547.624,818.004L547.624,815.593C547.624,815.527 547.656,815.496 547.722,815.496L548.292,815.496C548.363,815.496 548.39,815.527 548.39,815.593L548.39,820.32Z" style="fill:rgb(30,40,66);fill-rule:nonzero;"/>
        </g>
    </g>
    <g transform="matrix(0.492663,0,0,0.492663,-220.652,-391.166)">
        <path d="M552.85,815.49C552.92,815.49 552.948,815.521 552.948,815.588L552.948,816.115C552.948,816.185 552.92,816.217 552.85,816.217L551.225,816.217L551.225,818.951C551.225,819.502 551.479,819.783 551.998,819.783C552.323,819.783 552.577,819.763 552.928,819.638C552.948,819.627 552.979,819.615 552.998,819.615C553.045,819.615 553.065,819.658 553.065,819.717L553.065,820.178C553.065,820.263 553.065,820.314 552.987,820.342C552.705,820.451 552.35,820.51 551.94,820.51C551.018,820.51 550.459,819.951 550.459,819.017L550.459,816.217L549.588,816.217C549.518,816.217 549.487,816.185 549.487,816.115L549.487,815.588C549.487,815.521 549.518,815.49 549.588,815.49L550.459,815.49L550.459,814.08C550.459,814.01 550.487,813.982 550.557,813.982L551.127,813.982C551.194,813.982 551.225,814.009 551.225,814.08L551.225,815.49L552.85,815.49Z" style="fill:rgb(30,40,66);fill-rule:nonzero;"/>
    </g>
    <g transform="matrix(0.492663,0,0,0.492663,-220.652,-391.166)">
        <path d="M554.05,813.65C554.05,813.584 554.077,813.552 554.148,813.552L554.991,813.552C555.058,813.552 555.089,813.583 555.089,813.65L555.089,814.494C555.089,814.564 555.058,814.591 554.991,814.591L554.148,814.591C554.077,814.591 554.05,814.564 554.05,814.494L554.05,813.65ZM554.187,815.591C554.187,815.521 554.214,815.494 554.284,815.494L554.855,815.494C554.921,815.494 554.952,815.521 554.952,815.591L554.952,820.318C554.952,820.384 554.921,820.416 554.855,820.416L554.284,820.416C554.214,820.416 554.187,820.384 554.187,820.318L554.187,815.591Z" style="fill:rgb(30,40,66);fill-rule:nonzero;"/>
    </g>
    <g transform="matrix(0.492663,0,0,0.492663,-220.652,-391.166)">
        <path d="M558.52,815.39C559.934,815.39 561.02,816.39 561.02,817.949C561.02,819.507 559.934,820.507 558.52,820.507C557.11,820.507 556.02,819.507 556.02,817.949C556.02,816.39 557.11,815.39 558.52,815.39M558.52,819.781C559.532,819.781 560.215,819.046 560.215,817.949C560.215,816.851 559.532,816.117 558.52,816.117C557.512,816.117 556.825,816.851 556.825,817.949C556.825,819.046 557.512,819.781 558.52,819.781" style="fill:rgb(30,40,66);fill-rule:nonzero;"/>
    </g>
    <g transform="matrix(0.492663,0,0,0.492663,-220.652,-391.166)">
        <path d="M562.01,815.59C562.01,815.52 562.041,815.492 562.108,815.492L562.678,815.492C562.744,815.492 562.776,815.52 562.776,815.59L562.776,816.149C563.159,815.688 563.698,815.395 564.405,815.395C565.432,815.395 566.108,816.031 566.108,817.18L566.108,820.317C566.108,820.383 566.08,820.414 566.01,820.414L565.444,820.414C565.373,820.414 565.346,820.383 565.346,820.317L565.346,817.297C565.346,816.504 564.932,816.121 564.229,816.121C563.404,816.121 562.776,816.719 562.776,817.906L562.776,820.317C562.776,820.383 562.744,820.414 562.678,820.414L562.108,820.414C562.041,820.414 562.01,820.383 562.01,820.317L562.01,815.59Z" style="fill:rgb(30,40,66);fill-rule:nonzero;"/>
    </g>
    <g transform="matrix(0.492663,0,0,0.492663,-220.652,-391.166)">
        <path d="M505.04,818.42L502.235,818.42L501.56,820.314C501.54,820.381 501.52,820.412 501.442,820.412L500.782,820.412C500.716,820.412 500.677,820.381 500.677,820.314C500.677,820.295 500.677,820.283 500.685,820.256L503.118,813.646C503.138,813.58 503.146,813.549 503.216,813.549L504.06,813.549C504.126,813.549 504.138,813.58 504.157,813.646L506.587,820.256C506.599,820.283 506.599,820.295 506.599,820.314C506.599,820.381 506.56,820.412 506.489,820.412L505.833,820.412C505.755,820.412 505.736,820.381 505.716,820.314L505.04,818.42ZM502.521,817.639L504.755,817.639L503.638,814.541L502.521,817.639Z" style="fill:rgb(30,40,66);fill-rule:nonzero;"/>
    </g>
    <g transform="matrix(0.0369506,0,0,0.0369506,0.00566425,-0.0069814)">
        <path d="M849.58,64.167L849.58,180.517C849.58,182.236 849.007,183.642 847.809,184.788C846.664,185.985 845.205,186.559 843.434,186.559L810.882,186.559C809.111,186.559 807.653,185.989 806.455,184.788C805.31,183.642 804.736,182.236 804.736,180.517L804.736,64.167C804.736,62.448 805.309,61.042 806.455,59.896C807.654,58.699 809.111,58.125 810.882,58.125L843.434,58.125C845.205,58.125 846.663,58.695 847.809,59.896C849.007,61.041 849.58,62.448 849.58,64.167" style="fill:rgb(25,48,63);fill-rule:nonzero;"/>
    </g>
</svg>
