<?xml version="1.0" encoding="UTF-8" standalone="no"?>
<!DOCTYPE svg PUBLIC "-//W3C//DTD SVG 1.1//EN" "http://www.w3.org/Graphics/SVG/1.1/DTD/svg11.dtd">
<svg width="100%" height="100%" viewBox="0 0 126 120" version="1.1" xmlns="http://www.w3.org/2000/svg" xmlns:xlink="http://www.w3.org/1999/xlink" xml:space="preserve" xmlns:serif="http://www.serif.com/" style="fill-rule:evenodd;clip-rule:evenodd;stroke-linejoin:round;stroke-miterlimit:2;">
    <g transform="matrix(1,0,0,1,-1071.77,-155.44)">
        <g transform="matrix(0.81632,0,0,0.81632,-159.466,146.922)">
            <g>
                <g id="Layer1" transform="matrix(3.06252,0,0,3.06252,1535.27,11.1259)">
                    <path d="M28.304,4L28.304,14.427L38.325,14.427L28.304,4Z" style="fill:rgb(241,245,248);"/>
                </g>
                <path d="M1621.7,56.078L1623.33,56.078L1623.33,28.86L1649.5,54.454L1621.7,54.454L1621.7,56.078L1623.33,56.078L1621.7,56.078L1621.7,57.703L1653.49,57.703C1654.15,57.703 1654.74,57.304 1654.99,56.691C1655.24,56.079 1655.1,55.38 1654.62,54.917L1622.84,23.839C1622.37,23.383 1621.68,23.251 1621.07,23.503C1620.47,23.756 1620.08,24.349 1620.08,25L1620.08,56.078C1620.08,56.506 1620.25,56.924 1620.56,57.227C1620.86,57.529 1621.28,57.703 1621.7,57.703L1621.7,56.078Z" style="fill:rgb(58,73,85);fill-rule:nonzero;"/>
            </g>
            <path d="M1621.7,25L1621.7,23.376L1567.01,23.376C1565.76,23.376 1564.61,23.875 1563.78,24.686C1562.95,25.494 1562.42,26.639 1562.43,27.891L1562.43,141.362C1562.42,142.614 1562.95,143.759 1563.78,144.567C1564.61,145.378 1565.76,145.877 1567.01,145.877L1650.53,145.877C1651.78,145.877 1652.93,145.378 1653.76,144.567C1654.59,143.759 1655.11,142.614 1655.11,141.362L1655.11,56.078C1655.11,55.638 1654.94,55.225 1654.62,54.917L1622.84,23.839C1622.54,23.544 1622.13,23.376 1621.7,23.376L1621.7,25L1620.57,26.162L1651.86,56.762L1651.86,141.362C1651.86,141.706 1651.73,142.006 1651.49,142.244C1651.24,142.48 1650.92,142.628 1650.53,142.628L1567.01,142.628C1566.62,142.628 1566.29,142.48 1566.05,142.244C1565.81,142.006 1565.67,141.706 1565.67,141.362L1565.67,27.891C1565.67,27.547 1565.81,27.247 1566.05,27.009C1566.29,26.773 1566.62,26.625 1567.01,26.625L1621.7,26.625L1621.7,25L1620.57,26.162L1621.7,25Z" style="fill:rgb(58,73,85);fill-rule:nonzero;"/>
        </g>
        <g transform="matrix(0.81632,0,0,0.81632,-199.466,146.922)">
            <g transform="matrix(1.22501,0,0,1.22501,-1310.64,-580.554)">
                <g id="Layer11" serif:id="Layer1">
                    <path d="M2347,495L2347,591L2419,591L2419,520L2394,495L2347,495Z" style="fill:white;"/>
                </g>
            </g>
            <g transform="matrix(3.06252,0,0,3.06252,1535.27,11.1259)">
                <path d="M28.304,4L28.304,14.427L38.325,14.427L28.304,4Z" style="fill:rgb(210,220,228);"/>
            </g>
            <path d="M1621.7,56.078L1623.33,56.078L1623.33,28.86L1649.5,54.454L1621.7,54.454L1621.7,56.078L1623.33,56.078L1621.7,56.078L1621.7,57.703L1653.49,57.703C1654.15,57.703 1654.74,57.304 1654.99,56.691C1655.24,56.079 1655.1,55.38 1654.62,54.917L1622.84,23.839C1622.37,23.383 1621.68,23.251 1621.07,23.503C1620.47,23.756 1620.08,24.349 1620.08,25L1620.08,56.078C1620.08,56.506 1620.25,56.924 1620.56,57.227C1620.86,57.529 1621.28,57.703 1621.7,57.703L1621.7,56.078Z" style="fill:rgb(58,73,85);fill-rule:nonzero;"/>
            <path d="M1621.7,25L1621.7,23.376L1567.01,23.376C1565.76,23.376 1564.61,23.875 1563.78,24.686C1562.95,25.494 1562.42,26.639 1562.43,27.891L1562.43,141.362C1562.42,142.614 1562.95,143.759 1563.78,144.567C1564.61,145.378 1565.76,145.877 1567.01,145.877L1650.53,145.877C1651.78,145.877 1652.93,145.378 1653.76,144.567C1654.59,143.759 1655.11,142.614 1655.11,141.362L1655.11,56.078C1655.11,55.638 1654.94,55.225 1654.62,54.917L1622.84,23.839C1622.54,23.544 1622.13,23.376 1621.7,23.376L1621.7,25L1620.57,26.162L1651.86,56.762L1651.86,141.362C1651.86,141.706 1651.73,142.006 1651.49,142.244C1651.24,142.48 1650.92,142.628 1650.53,142.628L1567.01,142.628C1566.62,142.628 1566.29,142.48 1566.05,142.244C1565.81,142.006 1565.67,141.706 1565.67,141.362L1565.67,27.891C1565.67,27.547 1565.81,27.247 1566.05,27.009C1566.29,26.773 1566.62,26.625 1567.01,26.625L1621.7,26.625L1621.7,25L1620.57,26.162L1621.7,25Z" style="fill:rgb(58,73,85);fill-rule:nonzero;"/>
        </g>
        <g transform="matrix(0.663149,0,0,0.663149,334.683,62.4282)">
            <g transform="matrix(1,0,0,1,1087.64,173.005)">
                <path d="M78.271,108.392C75.776,107.677 100.94,75.342 100.94,75.342L71.973,82.118C71.973,82.118 92.878,47.274 94.231,47.592C108.147,50.857 118.518,63.323 118.518,78.184C118.518,95.529 104.39,109.611 86.988,109.611C83.964,109.611 81.04,109.186 78.271,108.392Z" style="fill:white;"/>
            </g>
            <g transform="matrix(0.156378,0,0,0.156378,1049.86,-11.1213)">
                <path d="M889.967,1614.3C867.97,1618.18 845.796,1620.27 823.594,1622.49C824.367,1622.41 827.073,1611.86 827.477,1610.65C828.845,1606.55 830.234,1602.45 831.641,1598.36C834.454,1590.19 837.339,1582.04 840.277,1573.91C846.154,1557.65 852.244,1541.47 858.396,1525.32C861.35,1517.56 864.319,1509.81 867.286,1502.05C868.77,1498.17 870.254,1494.3 871.734,1490.42C872.823,1487.56 874.87,1481.72 873.784,1478.69C872.467,1475.02 867.88,1477.39 866.034,1479.16C796.099,1546.42 735.039,1622.33 665.061,1689.56C663.032,1691.51 659.146,1699.63 665.111,1699.23C694.27,1697.3 723.425,1695.33 752.578,1693.32C732.222,1744.82 717.549,1798.38 696.718,1849.71C692.992,1858.89 703.383,1855.24 706.802,1850.95C767.323,1775.1 827.313,1698.86 890.022,1624.79C891.513,1623.03 896.763,1613.1 889.967,1614.3Z" style="fill:rgb(53,143,216);fill-rule:nonzero;"/>
            </g>
        </g>
    </g>
</svg>
