<?xml version="1.0" encoding="UTF-8" standalone="no"?>
<!DOCTYPE svg PUBLIC "-//W3C//DTD SVG 1.1//EN" "http://www.w3.org/Graphics/SVG/1.1/DTD/svg11.dtd">
<svg width="100%" height="100%" viewBox="0 0 1106 70" version="1.1" xmlns="http://www.w3.org/2000/svg" xmlns:xlink="http://www.w3.org/1999/xlink" xml:space="preserve" xmlns:serif="http://www.serif.com/" style="fill-rule:evenodd;clip-rule:evenodd;stroke-linejoin:round;stroke-miterlimit:2;">
    <g transform="matrix(1,0,0,1,-1800.7,-238.507)">
        <g transform="matrix(87.0875,0,0,87.0875,1800,306)">
            <path d="M0.365,-0.588L0.365,-0L0.169,-0L0.169,-0.588L0.008,-0.588L0.008,-0.754L0.526,-0.754L0.526,-0.588L0.365,-0.588Z" style="fill:rgb(45,57,64);fill-rule:nonzero;"/>
        </g>
        <g transform="matrix(87.0875,0,0,87.0875,1846.5,306)">
            <path d="M0.275,-0.463L0.558,-0.463L0.558,-0.754L0.754,-0.754L0.754,-0L0.558,-0L0.558,-0.311L0.275,-0.311L0.275,-0L0.079,-0L0.079,-0.754L0.275,-0.754L0.275,-0.463Z" style="fill:rgb(45,57,64);fill-rule:nonzero;"/>
        </g>
        <g transform="matrix(87.0875,0,0,87.0875,1919.05,306)">
            <path d="M0.508,-0.588L0.275,-0.588L0.275,-0.462L0.495,-0.462L0.495,-0.296L0.275,-0.296L0.275,-0.166L0.508,-0.166L0.508,-0L0.079,-0L0.079,-0.754L0.508,-0.754L0.508,-0.588Z" style="fill:rgb(45,57,64);fill-rule:nonzero;"/>
        </g>
        <g transform="matrix(87.0875,0,0,87.0875,2012.21,306)">
            <path d="M0.622,-0.502C0.577,-0.557 0.521,-0.585 0.454,-0.585C0.425,-0.585 0.398,-0.58 0.373,-0.569C0.347,-0.558 0.326,-0.544 0.308,-0.526C0.29,-0.507 0.276,-0.485 0.266,-0.46C0.255,-0.435 0.25,-0.407 0.25,-0.378C0.25,-0.348 0.255,-0.32 0.266,-0.295C0.276,-0.27 0.29,-0.248 0.309,-0.229C0.327,-0.21 0.348,-0.196 0.373,-0.185C0.398,-0.174 0.424,-0.169 0.453,-0.169C0.516,-0.169 0.572,-0.196 0.622,-0.249L0.622,-0.017L0.602,-0.01C0.572,0.001 0.544,0.009 0.518,0.014C0.492,0.019 0.466,0.021 0.441,0.021C0.389,0.021 0.339,0.011 0.292,-0.009C0.244,-0.028 0.202,-0.056 0.166,-0.092C0.129,-0.127 0.1,-0.169 0.078,-0.219C0.056,-0.268 0.045,-0.321 0.045,-0.379C0.045,-0.437 0.056,-0.49 0.078,-0.539C0.099,-0.587 0.128,-0.628 0.165,-0.664C0.201,-0.699 0.243,-0.726 0.291,-0.746C0.339,-0.765 0.389,-0.775 0.442,-0.775C0.472,-0.775 0.501,-0.772 0.531,-0.766C0.56,-0.759 0.59,-0.749 0.622,-0.736L0.622,-0.502Z" style="fill:rgb(45,57,64);fill-rule:nonzero;"/>
        </g>
        <g transform="matrix(87.0875,0,0,87.0875,2071.7,306)">
            <path d="M0.25,-0.377C0.25,-0.347 0.256,-0.319 0.267,-0.294C0.278,-0.269 0.294,-0.247 0.313,-0.228C0.332,-0.209 0.355,-0.195 0.381,-0.185C0.406,-0.174 0.433,-0.169 0.462,-0.169C0.491,-0.169 0.518,-0.174 0.544,-0.185C0.569,-0.195 0.592,-0.209 0.612,-0.228C0.631,-0.247 0.647,-0.269 0.658,-0.294C0.669,-0.319 0.675,-0.347 0.675,-0.377C0.675,-0.407 0.669,-0.435 0.658,-0.46C0.647,-0.485 0.631,-0.507 0.612,-0.526C0.592,-0.545 0.569,-0.559 0.544,-0.57C0.518,-0.58 0.491,-0.585 0.462,-0.585C0.433,-0.585 0.406,-0.58 0.381,-0.57C0.355,-0.559 0.332,-0.545 0.313,-0.526C0.294,-0.507 0.278,-0.485 0.267,-0.46C0.256,-0.435 0.25,-0.407 0.25,-0.377ZM0.045,-0.377C0.045,-0.433 0.055,-0.485 0.076,-0.534C0.097,-0.582 0.125,-0.624 0.162,-0.66C0.199,-0.696 0.243,-0.724 0.294,-0.745C0.345,-0.765 0.401,-0.775 0.462,-0.775C0.523,-0.775 0.579,-0.765 0.63,-0.745C0.681,-0.724 0.725,-0.696 0.763,-0.66C0.8,-0.624 0.828,-0.582 0.849,-0.534C0.87,-0.485 0.88,-0.433 0.88,-0.377C0.88,-0.321 0.87,-0.269 0.849,-0.221C0.828,-0.172 0.8,-0.13 0.763,-0.094C0.725,-0.058 0.681,-0.03 0.63,-0.01C0.579,0.011 0.523,0.021 0.462,0.021C0.401,0.021 0.345,0.011 0.294,-0.01C0.243,-0.03 0.199,-0.058 0.162,-0.094C0.125,-0.13 0.097,-0.172 0.076,-0.221C0.055,-0.269 0.045,-0.321 0.045,-0.377Z" style="fill:rgb(45,57,64);fill-rule:nonzero;"/>
        </g>
        <g transform="matrix(87.0875,0,0,87.0875,2152.26,306)">
            <path d="M0.045,-0L0.173,-0.754L0.367,-0.754L0.518,-0.352L0.668,-0.754L0.862,-0.754L0.99,-0L0.795,-0L0.73,-0.434L0.552,-0L0.474,-0L0.305,-0.434L0.24,-0L0.045,-0Z" style="fill:rgb(45,57,64);fill-rule:nonzero;"/>
        </g>
        <g transform="matrix(87.0875,0,0,87.0875,2242.4,306)">
            <path d="M0.275,-0.408L0.34,-0.408C0.412,-0.408 0.448,-0.439 0.448,-0.502C0.448,-0.565 0.412,-0.596 0.34,-0.596L0.275,-0.596L0.275,-0.408ZM0.275,-0L0.079,-0L0.079,-0.754L0.391,-0.754C0.476,-0.754 0.541,-0.732 0.586,-0.688C0.631,-0.644 0.653,-0.582 0.653,-0.502C0.653,-0.422 0.631,-0.36 0.586,-0.316C0.541,-0.272 0.476,-0.25 0.391,-0.25L0.275,-0.25L0.275,-0Z" style="fill:rgb(45,57,64);fill-rule:nonzero;"/>
        </g>
        <g transform="matrix(87.0875,0,0,87.0875,2301.44,306)">
            <path d="M0.275,-0.754L0.275,-0.166L0.51,-0.166L0.51,-0L0.079,-0L0.079,-0.754L0.275,-0.754Z" style="fill:rgb(45,57,64);fill-rule:nonzero;"/>
        </g>
        <g transform="matrix(87.0875,0,0,87.0875,2347.77,306)">
            <path d="M0.508,-0.588L0.275,-0.588L0.275,-0.462L0.495,-0.462L0.495,-0.296L0.275,-0.296L0.275,-0.166L0.508,-0.166L0.508,-0L0.079,-0L0.079,-0.754L0.508,-0.754L0.508,-0.588Z" style="fill:rgb(45,57,64);fill-rule:nonzero;"/>
        </g>
        <g transform="matrix(87.0875,0,0,87.0875,2397.41,306)">
            <path d="M0.365,-0.588L0.365,-0L0.169,-0L0.169,-0.588L0.008,-0.588L0.008,-0.754L0.526,-0.754L0.526,-0.588L0.365,-0.588Z" style="fill:rgb(45,57,64);fill-rule:nonzero;"/>
        </g>
        <g transform="matrix(87.0875,0,0,87.0875,2443.92,306)">
            <path d="M0.508,-0.588L0.275,-0.588L0.275,-0.462L0.495,-0.462L0.495,-0.296L0.275,-0.296L0.275,-0.166L0.508,-0.166L0.508,-0L0.079,-0L0.079,-0.754L0.508,-0.754L0.508,-0.588Z" style="fill:rgb(45,57,64);fill-rule:nonzero;"/>
        </g>
        <g transform="matrix(87.0875,0,0,87.0875,2537.08,306)">
            <path d="M0.275,-0.152L0.318,-0.152C0.367,-0.152 0.403,-0.158 0.424,-0.171C0.445,-0.184 0.456,-0.204 0.456,-0.232C0.456,-0.26 0.445,-0.28 0.424,-0.293C0.403,-0.306 0.367,-0.312 0.318,-0.312L0.275,-0.312L0.275,-0.152ZM0.275,-0.458L0.311,-0.458C0.372,-0.458 0.403,-0.482 0.403,-0.531C0.403,-0.58 0.372,-0.604 0.311,-0.604L0.275,-0.604L0.275,-0.458ZM0.079,-0.754L0.371,-0.754C0.44,-0.754 0.493,-0.737 0.529,-0.704C0.565,-0.671 0.583,-0.623 0.583,-0.56C0.583,-0.522 0.576,-0.491 0.563,-0.466C0.549,-0.44 0.528,-0.419 0.5,-0.402C0.528,-0.397 0.552,-0.389 0.572,-0.378C0.591,-0.367 0.607,-0.353 0.62,-0.337C0.632,-0.321 0.641,-0.303 0.646,-0.283C0.651,-0.263 0.654,-0.242 0.654,-0.219C0.654,-0.184 0.648,-0.152 0.636,-0.125C0.623,-0.098 0.606,-0.075 0.584,-0.056C0.561,-0.037 0.534,-0.023 0.502,-0.014C0.47,-0.005 0.434,-0 0.394,-0L0.079,-0L0.079,-0.754Z" style="fill:rgb(45,57,64);fill-rule:nonzero;"/>
        </g>
        <g transform="matrix(87.0875,0,0,87.0875,2597.34,306)">
            <path d="M0.275,-0.754L0.275,-0.344C0.275,-0.322 0.276,-0.3 0.278,-0.277C0.279,-0.254 0.284,-0.233 0.293,-0.214C0.301,-0.195 0.314,-0.18 0.332,-0.169C0.35,-0.157 0.375,-0.151 0.408,-0.151C0.441,-0.151 0.466,-0.157 0.484,-0.169C0.501,-0.18 0.514,-0.195 0.523,-0.214C0.532,-0.233 0.537,-0.254 0.539,-0.277C0.54,-0.3 0.541,-0.322 0.541,-0.344L0.541,-0.754L0.736,-0.754L0.736,-0.317C0.736,-0.2 0.709,-0.114 0.656,-0.06C0.602,-0.006 0.519,0.021 0.408,0.021C0.297,0.021 0.214,-0.006 0.16,-0.06C0.106,-0.114 0.079,-0.2 0.079,-0.317L0.079,-0.754L0.275,-0.754Z" style="fill:rgb(45,57,64);fill-rule:nonzero;"/>
        </g>
        <g transform="matrix(87.0875,0,0,87.0875,2668.32,306)">
            <path d="M0.079,-0L0.079,-0.754L0.275,-0.754L0.637,-0.293L0.637,-0.754L0.832,-0.754L0.832,-0L0.637,-0L0.275,-0.461L0.275,-0L0.079,-0Z" style="fill:rgb(45,57,64);fill-rule:nonzero;"/>
        </g>
        <g transform="matrix(87.0875,0,0,87.0875,2747.65,306)">
            <path d="M0.275,-0.166L0.32,-0.166C0.354,-0.166 0.384,-0.171 0.411,-0.182C0.438,-0.193 0.46,-0.207 0.479,-0.226C0.497,-0.245 0.511,-0.267 0.521,-0.293C0.53,-0.318 0.535,-0.346 0.535,-0.377C0.535,-0.407 0.53,-0.435 0.52,-0.461C0.51,-0.487 0.496,-0.509 0.478,-0.528C0.459,-0.547 0.437,-0.561 0.41,-0.572C0.383,-0.583 0.353,-0.588 0.32,-0.588L0.275,-0.588L0.275,-0.166ZM0.079,-0.754L0.369,-0.754C0.42,-0.754 0.468,-0.744 0.514,-0.723C0.559,-0.702 0.598,-0.675 0.632,-0.641C0.665,-0.606 0.692,-0.566 0.711,-0.521C0.73,-0.475 0.74,-0.427 0.74,-0.377C0.74,-0.328 0.731,-0.28 0.712,-0.235C0.693,-0.189 0.666,-0.149 0.633,-0.114C0.599,-0.079 0.56,-0.052 0.515,-0.031C0.47,-0.01 0.421,-0 0.369,-0L0.079,-0L0.079,-0.754Z" style="fill:rgb(45,57,64);fill-rule:nonzero;"/>
        </g>
        <g transform="matrix(87.0875,0,0,87.0875,2816.1,306)">
            <path d="M0.275,-0.754L0.275,-0.166L0.51,-0.166L0.51,-0L0.079,-0L0.079,-0.754L0.275,-0.754Z" style="fill:rgb(45,57,64);fill-rule:nonzero;"/>
        </g>
        <g transform="matrix(87.0875,0,0,87.0875,2862.43,306)">
            <path d="M0.508,-0.588L0.275,-0.588L0.275,-0.462L0.495,-0.462L0.495,-0.296L0.275,-0.296L0.275,-0.166L0.508,-0.166L0.508,-0L0.079,-0L0.079,-0.754L0.508,-0.754L0.508,-0.588Z" style="fill:rgb(45,57,64);fill-rule:nonzero;"/>
        </g>
    </g>
</svg>
