<?xml version="1.0" encoding="UTF-8" standalone="no"?>
<!DOCTYPE svg PUBLIC "-//W3C//DTD SVG 1.1//EN" "http://www.w3.org/Graphics/SVG/1.1/DTD/svg11.dtd">
<svg width="100%" height="100%" viewBox="0 0 124 120" version="1.1" xmlns="http://www.w3.org/2000/svg" xmlns:xlink="http://www.w3.org/1999/xlink" xml:space="preserve" xmlns:serif="http://www.serif.com/" style="fill-rule:evenodd;clip-rule:evenodd;stroke-linejoin:round;stroke-miterlimit:2;">
    <g transform="matrix(1.00357,0,0,1.00357,-2.7272,-4.22855)">
        <g id="Layer1">
            <path d="M37.699,87.81L43.709,108.316L85.093,107.065L79.082,87.81L37.699,87.81Z" style="fill:rgb(241,245,248);"/>
            <path d="M79.082,5.953L66.296,5.953L56.743,13.208L52.139,20.642L42.732,20.642L58.858,41.304L75.365,20.642L66.296,20.642L79.082,5.953Z" style="fill:rgb(241,245,248);"/>
        </g>
        <g transform="matrix(1,0,0,1,-173.365,-20.6265)">
            <path d="M225.937,58.769L212.943,58.769C210.067,58.769 207.67,60.966 207.418,63.831L207.094,67.535C206.994,68.688 206.027,69.574 204.869,69.573L204.326,69.573C200.778,69.574 197.82,72.285 197.51,75.82L197.243,78.867C197.163,79.779 197.837,80.582 198.749,80.662C199.66,80.741 200.463,80.067 200.543,79.156L200.81,76.108C200.968,74.285 202.496,72.885 204.326,72.886L204.869,72.886C207.746,72.885 210.143,70.688 210.394,67.823L210.718,64.12C210.819,62.967 211.786,62.081 212.943,62.081L225.937,62.081C226.851,62.081 227.593,61.34 227.593,60.425C227.593,59.51 226.851,58.769 225.937,58.769Z" style="fill:rgb(58,73,85);fill-rule:nonzero;"/>
            <path d="M293.849,131.557L298.621,77.012C298.639,76.81 298.647,76.608 298.647,76.408C298.648,74.54 297.886,72.826 296.655,71.59C295.427,70.351 293.702,69.572 291.805,69.573L256.545,69.573C255.917,69.572 255.372,69.324 254.963,68.916C254.557,68.505 254.312,67.954 254.312,67.346L254.321,67.146L254.321,67.145L254.526,64.798C254.54,64.634 254.547,64.471 254.547,64.309C254.548,62.795 253.93,61.404 252.933,60.403C251.938,59.4 250.538,58.768 249.001,58.769L239.119,58.769C238.204,58.769 237.462,59.51 237.462,60.425C237.462,61.34 238.204,62.081 239.119,62.081L249.001,62.081C249.63,62.082 250.175,62.331 250.584,62.739C250.99,63.149 251.235,63.7 251.235,64.309L251.226,64.51L251.226,64.509L251.021,66.857L251.021,66.856C251.006,67.02 250.999,67.184 250.999,67.346C250.999,68.86 251.617,70.251 252.614,71.252C253.608,72.255 255.009,72.887 256.545,72.886L291.805,72.886C292.794,72.887 293.663,73.282 294.306,73.926C294.946,74.571 295.335,75.446 295.335,76.408C295.335,76.512 295.33,76.617 295.321,76.724L290.549,131.269C290.469,132.18 291.143,132.983 292.055,133.063C292.966,133.143 293.769,132.469 293.849,131.557Z" style="fill:rgb(72,85,102);fill-rule:nonzero;"/>
            <path d="M213.08,72.886L247.655,72.886C248.569,72.886 249.311,72.144 249.311,71.23C249.311,70.315 248.569,69.573 247.655,69.573L213.08,69.573C212.165,69.573 211.423,70.315 211.423,71.23C211.423,72.144 212.165,72.886 213.08,72.886Z" style="fill:rgb(53,143,216);fill-rule:nonzero;"/>
            <path d="M212.22,93.344L212.22,96.656L273.541,96.656C275.138,96.656 276.538,97.73 276.951,99.273L288.158,141.1L195.411,141.1C194.401,141.1 193.515,140.421 193.254,139.445L179.473,88.015C179.419,87.813 179.395,87.619 179.395,87.429C179.394,86.841 179.635,86.281 180.04,85.868C180.448,85.457 180.985,85.205 181.63,85.203L202.187,85.203C203.784,85.203 205.183,86.277 205.596,87.82L206.863,92.546C207.513,94.97 209.709,96.656 212.22,96.656L212.22,93.344C211.209,93.344 210.324,92.665 210.062,91.688L208.796,86.962C207.994,83.971 205.284,81.891 202.187,81.891L181.63,81.891C180.071,81.889 178.662,82.538 177.676,83.548C176.686,84.556 176.083,85.938 176.082,87.429C176.082,87.906 176.145,88.391 176.273,88.872L190.054,140.302C190.704,142.727 192.901,144.412 195.411,144.413L290.317,144.413C290.831,144.413 291.318,144.173 291.631,143.765C291.944,143.356 292.05,142.824 291.917,142.328L280.15,98.415C279.348,95.424 276.638,93.344 273.541,93.344L212.22,93.344Z" style="fill:rgb(58,73,85);fill-rule:nonzero;"/>
            <path d="M242.925,119.923L228.987,119.923C228.072,119.923 227.33,120.664 227.33,121.579C227.33,122.494 228.072,123.235 228.987,123.235L242.925,123.235C243.839,123.235 244.581,122.494 244.581,121.579C244.581,120.664 243.839,119.923 242.925,119.923Z" style="fill:rgb(58,73,85);fill-rule:nonzero;"/>
            <path d="M227.192,116.536L241.13,116.536C242.044,116.536 242.786,115.795 242.786,114.88C242.786,113.965 242.044,113.224 241.13,113.224L227.192,113.224C226.277,113.224 225.535,113.965 225.535,114.88C225.535,115.795 226.277,116.536 227.192,116.536Z" style="fill:rgb(58,73,85);fill-rule:nonzero;"/>
            <path d="M258.657,128.278L260.258,127.849L254.873,107.753C254.678,107.028 254.023,106.525 253.273,106.525L211.459,106.525C210.944,106.525 210.458,106.765 210.145,107.173C209.831,107.581 209.726,108.113 209.859,108.61L215.244,128.707C215.438,129.431 216.093,129.934 216.844,129.934L258.657,129.934C259.172,129.934 259.659,129.694 259.971,129.286C260.285,128.878 260.39,128.346 260.258,127.849L258.657,128.278L258.657,126.622L218.114,126.622L213.617,109.838L252.002,109.838L257.058,128.707L258.657,128.278L258.657,126.622L258.657,128.278Z" style="fill:rgb(58,73,85);fill-rule:nonzero;"/>
            <path d="M213.906,87.975L214.489,81.314L287.382,81.314L284.931,109.332C284.851,110.243 285.525,111.047 286.436,111.126C287.348,111.206 288.151,110.532 288.231,109.621L290.84,79.802C290.88,79.336 290.726,78.883 290.411,78.538C290.095,78.194 289.657,78.001 289.19,78.001L212.971,78.001C212.111,78.001 211.396,78.657 211.321,79.513L210.606,87.686C210.526,88.597 211.2,89.4 212.112,89.48C213.023,89.56 213.826,88.886 213.906,87.975Z" style="fill:rgb(53,143,216);fill-rule:nonzero;"/>
            <path d="M241.398,42.116C243.808,37.664 246.613,34.133 249.606,31.759C252.606,29.382 255.745,28.156 258.999,28.153C261.812,28.155 264.532,29.071 267.162,30.854C271.101,33.521 274.772,38.18 277.728,44.321C280.688,50.458 282.941,58.056 284.168,66.525C284.299,67.43 285.14,68.058 286.045,67.927C286.95,67.795 287.578,66.955 287.446,66.05C285.749,54.37 282.183,44.217 277.31,36.862C274.871,33.186 272.098,30.204 269.023,28.113C265.953,26.024 262.553,24.838 258.999,24.84C254.882,24.838 250.985,26.427 247.545,29.166C244.098,31.907 241.059,35.791 238.485,40.537C238.05,41.341 238.348,42.347 239.152,42.783C239.957,43.218 240.962,42.92 241.398,42.116Z" style="fill:rgb(58,73,85);fill-rule:nonzero;"/>
            <path d="M251.447,33.752C253.148,34.458 255.138,35.785 257.127,37.655C260.118,40.459 263.118,44.473 265.4,49.36C267.684,54.249 269.258,60.008 269.457,66.34C269.486,67.254 270.251,67.972 271.165,67.943C272.079,67.914 272.797,67.15 272.768,66.235C272.48,57.142 269.569,49.161 265.711,43.015C263.781,39.941 261.613,37.322 259.394,35.24C257.174,33.159 254.91,31.609 252.721,30.694C251.877,30.343 250.907,30.742 250.555,31.586C250.203,32.431 250.603,33.4 251.447,33.752Z" style="fill:rgb(58,73,85);fill-rule:nonzero;"/>
            <path d="M226.579,42.346C228.945,37.923 231.696,34.392 234.638,31.981C237.586,29.566 240.679,28.27 243.875,28.16L243.82,26.505L243.82,28.161L258.999,28.161C259.914,28.161 260.655,27.42 260.655,26.505C260.655,25.59 259.914,24.849 258.999,24.849L243.82,24.849L243.764,24.85C239.718,24.983 235.905,26.65 232.536,29.42C229.16,32.194 226.182,36.071 223.659,40.783C223.227,41.589 223.531,42.593 224.338,43.025C225.144,43.456 226.148,43.152 226.579,42.346Z" style="fill:rgb(58,73,85);fill-rule:nonzero;"/>
            <path d="M239.983,43.28L246.552,43.28L232.805,59.417L219.059,43.28L224.64,43.28C225.555,43.28 226.296,42.538 226.296,41.623C226.296,40.709 225.555,39.967 224.64,39.967L215.472,39.967C214.828,39.967 214.238,40.344 213.968,40.929C213.698,41.514 213.793,42.207 214.211,42.697L231.545,63.045C231.859,63.415 232.32,63.627 232.805,63.627C233.291,63.627 233.752,63.415 234.066,63.045L251.4,42.697C251.818,42.207 251.913,41.514 251.643,40.929C251.373,40.344 250.783,39.967 250.139,39.967L239.983,39.967C239.068,39.967 238.327,40.709 238.327,41.623C238.327,42.538 239.068,43.28 239.983,43.28Z" style="fill:rgb(58,73,85);fill-rule:nonzero;"/>
        </g>
    </g>
</svg>
