<?xml version="1.0" encoding="UTF-8" standalone="no"?>
<!DOCTYPE svg PUBLIC "-//W3C//DTD SVG 1.1//EN" "http://www.w3.org/Graphics/SVG/1.1/DTD/svg11.dtd">
<svg width="100%" height="100%" viewBox="0 0 126 120" version="1.1" xmlns="http://www.w3.org/2000/svg" xmlns:xlink="http://www.w3.org/1999/xlink" xml:space="preserve" xmlns:serif="http://www.serif.com/" style="fill-rule:evenodd;clip-rule:evenodd;stroke-linejoin:round;stroke-miterlimit:2;">
    <g transform="matrix(0.831818,0,0,0.831818,7.19834,7.78011)">
        <g id="Layer1">
            <path d="M86.463,13.899C102.256,13.899 115.077,26.721 115.077,42.513C115.077,58.305 102.256,71.127 86.463,71.127C70.671,71.127 57.85,58.305 57.85,42.513C57.85,26.721 70.671,13.899 86.463,13.899ZM96.972,27.14C99.703,27.14 101.921,29.357 101.921,32.089C101.921,34.82 99.703,37.038 96.972,37.038C94.241,37.038 92.023,34.82 92.023,32.089C92.023,29.357 94.241,27.14 96.972,27.14Z" style="fill:rgb(166,206,238);"/>
        </g>
        <g transform="matrix(1,0,0,1,-1240.02,-782.517)">
            <path d="M1341.21,819.297L1340.04,818.126C1339.14,819.021 1337.98,819.462 1336.81,819.464C1335.63,819.462 1334.47,819.021 1333.58,818.126C1332.68,817.23 1332.24,816.071 1332.24,814.896C1332.24,813.722 1332.68,812.563 1333.58,811.667C1334.47,810.772 1335.63,810.331 1336.81,810.329C1337.98,810.331 1339.14,810.771 1340.04,811.667C1340.93,812.563 1341.37,813.722 1341.37,814.896C1341.37,816.071 1340.93,817.23 1340.04,818.126L1341.21,819.297L1342.38,820.469C1343.91,818.934 1344.69,816.908 1344.69,814.896C1344.69,812.885 1343.91,810.859 1342.38,809.324C1340.84,807.789 1338.82,807.014 1336.81,807.016C1334.8,807.014 1332.77,807.789 1331.23,809.324C1329.7,810.858 1328.93,812.885 1328.93,814.896C1328.93,816.908 1329.7,818.934 1331.23,820.469C1332.77,822.004 1334.8,822.779 1336.81,822.777C1338.82,822.779 1340.84,822.004 1342.38,820.469L1341.21,819.297Z" style="fill:rgb(58,73,85);fill-rule:nonzero;"/>
            <path d="M1249.08,906.141L1299.35,855.872C1299.99,855.225 1299.99,854.177 1299.35,853.53C1298.7,852.883 1297.65,852.883 1297.01,853.53L1246.74,903.799C1246.09,904.446 1246.09,905.495 1246.74,906.141C1247.38,906.788 1248.43,906.788 1249.08,906.141Z" style="fill:rgb(58,73,85);fill-rule:nonzero;"/>
            <path d="M1352.94,850.398L1354.12,851.569C1361.57,844.12 1365.3,834.342 1365.3,824.579C1365.3,814.815 1361.57,805.037 1354.12,797.588C1346.67,790.138 1336.89,786.407 1327.12,786.408C1317.36,786.407 1307.58,790.138 1300.13,797.588C1292.69,805.036 1288.96,814.81 1288.96,824.57C1288.96,831.138 1290.65,837.709 1294.02,843.578L1295.45,842.753L1294.28,841.582L1243.22,892.65C1242.78,893.087 1242.62,893.73 1242.81,894.32L1246.33,905.469C1246.56,906.189 1247.25,906.666 1248,906.624L1263.55,905.744C1264.4,905.696 1265.07,905.018 1265.11,904.17L1265.36,899.095L1270.43,898.849C1271.29,898.808 1271.97,898.129 1272.01,897.275L1272.25,892.2L1277.33,891.955C1277.74,891.935 1278.13,891.761 1278.42,891.471L1281.87,888.024C1282.16,887.734 1282.33,887.342 1282.35,886.933L1282.59,881.857L1287.67,881.612C1288.52,881.571 1289.2,880.891 1289.24,880.038L1289.49,874.962L1294.56,874.717C1294.97,874.698 1295.37,874.524 1295.66,874.234L1299.1,870.787C1299.39,870.497 1299.57,870.105 1299.59,869.695L1299.83,864.62L1304.91,864.375C1305.32,864.355 1305.71,864.182 1306,863.892L1309.45,860.444L1311.64,858.248L1310.47,857.076L1309.72,858.55C1315.17,861.346 1321.15,862.744 1327.13,862.744C1336.89,862.746 1346.67,859.018 1354.12,851.569L1352.94,850.398L1351.77,849.227C1344.96,856.035 1336.06,859.43 1327.13,859.432C1321.67,859.432 1316.2,858.154 1311.23,855.603C1310.59,855.274 1309.81,855.396 1309.3,855.905L1307.1,858.102L1304.11,861.097L1298.17,861.384C1297.32,861.425 1296.64,862.105 1296.6,862.958L1296.31,868.896L1293.77,871.439L1287.83,871.726C1286.97,871.768 1286.29,872.447 1286.25,873.301L1286.01,878.376L1280.93,878.621C1280.08,878.663 1279.4,879.342 1279.36,880.196L1279.07,886.134L1276.53,888.677L1270.59,888.964C1269.74,889.005 1269.06,889.684 1269.02,890.538L1268.77,895.613L1263.7,895.859C1262.84,895.9 1262.16,896.579 1262.12,897.433L1261.87,902.521L1249.1,903.244L1246.27,894.281L1296.63,843.924C1297.16,843.393 1297.26,842.578 1296.89,841.928C1293.81,836.572 1292.27,830.572 1292.27,824.57C1292.27,815.647 1295.67,806.74 1302.48,799.931C1309.29,793.121 1318.2,789.723 1327.12,789.721C1336.05,789.723 1344.96,793.121 1351.77,799.931C1358.58,806.741 1361.98,815.652 1361.98,824.579C1361.98,833.505 1358.58,842.416 1351.77,849.227L1352.94,850.398Z" style="fill:rgb(58,73,85);fill-rule:nonzero;"/>
        </g>
    </g>
</svg>
