<?xml version="1.0" encoding="UTF-8" standalone="no"?>
<!DOCTYPE svg PUBLIC "-//W3C//DTD SVG 1.1//EN" "http://www.w3.org/Graphics/SVG/1.1/DTD/svg11.dtd">
<svg width="100%" height="100%" viewBox="0 0 126 120" version="1.1" xmlns="http://www.w3.org/2000/svg" xmlns:xlink="http://www.w3.org/1999/xlink" xml:space="preserve" xmlns:serif="http://www.serif.com/" style="fill-rule:evenodd;clip-rule:evenodd;stroke-linejoin:round;stroke-miterlimit:2;">
    <g transform="matrix(0.98101,0,0,0.98101,-0.125979,3.04565)">
        <g id="Layer1">
            <rect x="17.295" y="75.805" width="17.696" height="10.543" style="fill:rgb(210,220,228);"/>
            <g transform="matrix(1.49065,0,0,1.27653,-2708.62,-648.78)">
                <path d="M1902,536.539C1902,531.376 1898.41,527.185 1893.99,527.185L1826.01,527.185C1821.59,527.185 1818,531.376 1818,536.539L1818,579.308C1818,584.471 1821.59,588.662 1826.01,588.662L1893.99,588.662C1898.41,588.662 1902,584.471 1902,579.308L1902,536.539Z" style="fill:white;"/>
            </g>
            <rect x="3.206" y="44.826" width="120.598" height="16.143" style="fill:rgb(166,206,238);"/>
            <g transform="matrix(1.06451,0,0,1.03366,10.5704,-2.26435)">
                <circle cx="86.239" cy="80.94" r="9.592" style="fill:rgb(241,245,248);"/>
            </g>
            <g transform="matrix(1.06451,0,0,1.03366,-7.42955,-2.26435)">
                <circle cx="86.239" cy="80.94" r="9.592" style="fill:rgb(241,245,248);"/>
            </g>
        </g>
        <g transform="matrix(1,0,0,1,-173.364,-1547.8)">
            <path d="M298.316,1608.19L298.316,1606.54L178.07,1606.54L178.07,1594.38L296.66,1594.38L296.66,1608.19L298.316,1608.19L298.316,1606.54L298.316,1608.19L299.972,1608.19L299.972,1592.73C299.972,1592.29 299.796,1591.86 299.487,1591.55C299.179,1591.25 298.752,1591.07 298.316,1591.07L176.414,1591.07C175.977,1591.07 175.551,1591.25 175.242,1591.55C174.934,1591.86 174.757,1592.29 174.757,1592.73L174.757,1608.19C174.757,1608.63 174.934,1609.05 175.242,1609.36C175.551,1609.67 175.977,1609.85 176.414,1609.85L298.316,1609.85C298.752,1609.85 299.179,1609.67 299.487,1609.36C299.796,1609.05 299.972,1608.63 299.972,1608.19L298.316,1608.19Z" style="fill:rgb(166,206,238);fill-rule:nonzero;"/>
            <path d="M288.65,1651.62L288.65,1648.3L186.08,1648.3C183.863,1648.3 181.871,1647.41 180.416,1645.96C178.964,1644.5 178.071,1642.51 178.07,1640.29L178.07,1583.31C178.071,1581.1 178.964,1579.1 180.416,1577.65C181.871,1576.2 183.863,1575.3 186.08,1575.3L288.65,1575.3C290.867,1575.3 292.859,1576.2 294.314,1577.65C295.766,1579.1 296.659,1581.1 296.66,1583.31L296.66,1640.29C296.659,1642.51 295.766,1644.5 294.314,1645.96C292.859,1647.41 290.867,1648.3 288.65,1648.3L288.65,1651.62C294.904,1651.62 299.971,1646.55 299.972,1640.29L299.972,1583.31C299.971,1577.06 294.904,1571.99 288.65,1571.99L186.08,1571.99C179.826,1571.99 174.758,1577.06 174.757,1583.31L174.757,1640.29C174.758,1646.55 179.826,1651.62 186.08,1651.62L288.65,1651.62Z" style="fill:rgb(58,73,85);fill-rule:nonzero;"/>
            <path d="M275.742,1619.67L275.742,1616.36C271.375,1616.36 267.514,1618.56 265.231,1621.92L266.599,1622.85L267.967,1621.92C265.684,1618.56 261.823,1616.36 257.456,1616.36C250.432,1616.36 244.74,1622.05 244.739,1629.07C244.74,1636.1 250.432,1641.79 257.456,1641.79C261.823,1641.79 265.684,1639.58 267.967,1636.23L266.599,1635.3L265.231,1636.23C267.514,1639.58 271.375,1641.79 275.742,1641.79C282.766,1641.79 288.458,1636.1 288.459,1629.07C288.458,1622.05 282.766,1616.36 275.742,1616.36L275.742,1619.67C278.344,1619.67 280.685,1620.72 282.392,1622.42C284.097,1624.13 285.146,1626.47 285.147,1629.07C285.146,1631.68 284.097,1634.02 282.392,1635.72C280.685,1637.43 278.344,1638.48 275.742,1638.48C272.508,1638.48 269.666,1636.85 267.967,1634.36C267.658,1633.91 267.147,1633.64 266.599,1633.64C266.051,1633.64 265.54,1633.91 265.231,1634.36C263.532,1636.85 260.69,1638.48 257.456,1638.48C254.854,1638.48 252.513,1637.43 250.806,1635.72C249.101,1634.02 248.052,1631.68 248.051,1629.07C248.052,1626.47 249.101,1624.13 250.806,1622.42C252.513,1620.72 254.854,1619.67 257.456,1619.67C260.69,1619.67 263.532,1621.3 265.231,1623.78C265.54,1624.23 266.051,1624.51 266.599,1624.51C267.147,1624.51 267.658,1624.23 267.967,1623.78C269.666,1621.3 272.508,1619.67 275.742,1619.67Z" style="fill:rgb(58,73,85);fill-rule:nonzero;"/>
            <path d="M208.018,1634.49L208.018,1632.83L192.518,1632.83L192.518,1625.31L206.362,1625.31L206.362,1634.49L208.018,1634.49L208.018,1632.83L208.018,1634.49L209.674,1634.49L209.674,1623.66C209.674,1623.22 209.498,1622.79 209.189,1622.48C208.881,1622.18 208.454,1622 208.018,1622L190.861,1622C190.425,1622 189.999,1622.18 189.69,1622.48C189.382,1622.79 189.205,1623.22 189.205,1623.66L189.205,1634.49C189.205,1634.93 189.382,1635.35 189.69,1635.66C189.999,1635.97 190.425,1636.15 190.861,1636.15L208.018,1636.15C208.454,1636.15 208.881,1635.97 209.189,1635.66C209.498,1635.35 209.674,1634.93 209.674,1634.49L208.018,1634.49Z" style="fill:rgb(58,73,85);fill-rule:nonzero;"/>
        </g>
    </g>
</svg>
