<?xml version="1.0" encoding="UTF-8" standalone="no"?>
<!DOCTYPE svg PUBLIC "-//W3C//DTD SVG 1.1//EN" "http://www.w3.org/Graphics/SVG/1.1/DTD/svg11.dtd">
<svg width="100%" height="100%" viewBox="0 0 270 62" version="1.1" xmlns="http://www.w3.org/2000/svg" xmlns:xlink="http://www.w3.org/1999/xlink" xml:space="preserve" xmlns:serif="http://www.serif.com/" style="fill-rule:evenodd;clip-rule:evenodd;stroke-linejoin:round;stroke-miterlimit:2;">
    <g transform="matrix(1,0,0,1,-1378.14,-408.729)">
        <path d="M1461.31,424L1457.26,408.729L1459.33,408.729L1461.66,418.74C1461.91,419.788 1462.12,420.83 1462.3,421.865C1462.69,420.233 1462.92,419.292 1462.99,419.042L1465.9,408.729L1468.33,408.729L1470.52,416.458C1471.07,418.375 1471.46,420.177 1471.71,421.865C1471.9,420.899 1472.16,419.792 1472.47,418.542L1474.87,408.729L1476.9,408.729L1472.71,424L1470.76,424L1467.54,412.365C1467.27,411.392 1467.11,410.795 1467.06,410.573C1466.9,411.274 1466.75,411.872 1466.62,412.365L1463.38,424L1461.31,424Z" style="fill:rgb(91,93,110);fill-rule:nonzero;"/>
        <path d="M1485.73,420.437L1487.67,420.677C1487.36,421.809 1486.8,422.687 1485.97,423.312C1485.14,423.937 1484.09,424.25 1482.8,424.25C1481.18,424.25 1479.9,423.752 1478.95,422.755C1478.01,421.759 1477.53,420.361 1477.53,418.562C1477.53,416.701 1478.01,415.257 1478.97,414.229C1479.93,413.201 1481.17,412.687 1482.7,412.687C1484.18,412.687 1485.38,413.191 1486.32,414.198C1487.26,415.205 1487.73,416.622 1487.73,418.448C1487.73,418.559 1487.73,418.726 1487.72,418.948L1479.47,418.948C1479.54,420.163 1479.88,421.094 1480.5,421.74C1481.12,422.385 1481.89,422.708 1482.81,422.708C1483.5,422.708 1484.09,422.528 1484.57,422.167C1485.06,421.806 1485.44,421.229 1485.73,420.437ZM1479.57,417.406L1485.75,417.406C1485.67,416.476 1485.43,415.778 1485.04,415.312C1484.44,414.59 1483.67,414.229 1482.72,414.229C1481.86,414.229 1481.13,414.517 1480.55,415.094C1479.96,415.67 1479.63,416.441 1479.57,417.406Z" style="fill:rgb(91,93,110);fill-rule:nonzero;"/>
        <rect x="1489.98" y="408.729" width="1.875" height="15.271" style="fill:rgb(91,93,110);fill-rule:nonzero;"/>
        <path d="M1501.98,419.948L1503.82,420.187C1503.62,421.458 1503.11,422.453 1502.28,423.172C1501.45,423.891 1500.43,424.25 1499.22,424.25C1497.7,424.25 1496.49,423.755 1495.57,422.766C1494.65,421.776 1494.19,420.358 1494.19,418.51C1494.19,417.316 1494.38,416.271 1494.78,415.375C1495.18,414.479 1495.78,413.807 1496.59,413.359C1497.4,412.911 1498.28,412.687 1499.23,412.687C1500.43,412.687 1501.41,412.991 1502.18,413.599C1502.94,414.207 1503.43,415.069 1503.65,416.187L1501.82,416.469C1501.65,415.726 1501.34,415.167 1500.9,414.792C1500.46,414.417 1499.93,414.229 1499.3,414.229C1498.36,414.229 1497.59,414.568 1497,415.245C1496.41,415.922 1496.12,416.993 1496.12,418.458C1496.12,419.944 1496.4,421.024 1496.97,421.698C1497.54,422.372 1498.28,422.708 1499.2,422.708C1499.93,422.708 1500.55,422.483 1501.04,422.031C1501.54,421.58 1501.85,420.885 1501.98,419.948Z" style="fill:rgb(91,93,110);fill-rule:nonzero;"/>
        <path d="M1504.73,418.469C1504.73,416.42 1505.3,414.903 1506.44,413.917C1507.39,413.097 1508.55,412.687 1509.92,412.687C1511.44,412.687 1512.68,413.186 1513.65,414.182C1514.61,415.179 1515.09,416.556 1515.09,418.312C1515.09,419.736 1514.88,420.856 1514.45,421.672C1514.03,422.488 1513.4,423.122 1512.59,423.573C1511.77,424.024 1510.88,424.25 1509.92,424.25C1508.37,424.25 1507.12,423.753 1506.16,422.76C1505.21,421.767 1504.73,420.337 1504.73,418.469ZM1506.66,418.469C1506.66,419.885 1506.96,420.946 1507.58,421.651C1508.2,422.356 1508.98,422.708 1509.92,422.708C1510.85,422.708 1511.62,422.354 1512.24,421.646C1512.86,420.937 1513.17,419.858 1513.17,418.406C1513.17,417.038 1512.86,416.002 1512.23,415.297C1511.61,414.592 1510.84,414.24 1509.92,414.24C1508.98,414.24 1508.2,414.59 1507.58,415.292C1506.96,415.993 1506.66,417.052 1506.66,418.469Z" style="fill:rgb(91,93,110);fill-rule:nonzero;"/>
        <path d="M1517.29,424L1517.29,412.937L1518.97,412.937L1518.97,414.49C1519.32,413.948 1519.78,413.512 1520.35,413.182C1520.93,412.852 1521.59,412.687 1522.32,412.687C1523.14,412.687 1523.81,412.858 1524.34,413.198C1524.86,413.538 1525.23,414.014 1525.45,414.625C1526.32,413.333 1527.46,412.687 1528.87,412.687C1529.96,412.687 1530.81,412.991 1531.4,413.599C1531.99,414.207 1532.28,415.142 1532.28,416.406L1532.28,424L1530.42,424L1530.42,417.031C1530.42,416.281 1530.36,415.741 1530.23,415.411C1530.11,415.082 1529.89,414.816 1529.57,414.615C1529.25,414.413 1528.88,414.312 1528.45,414.312C1527.67,414.312 1527.02,414.571 1526.51,415.089C1526,415.606 1525.74,416.434 1525.74,417.573L1525.74,424L1523.87,424L1523.87,416.812C1523.87,415.979 1523.71,415.354 1523.41,414.937C1523.1,414.521 1522.6,414.312 1521.91,414.312C1521.38,414.312 1520.89,414.451 1520.44,414.729C1520,415.007 1519.67,415.413 1519.47,415.948C1519.27,416.483 1519.17,417.253 1519.17,418.26L1519.17,424L1517.29,424Z" style="fill:rgb(91,93,110);fill-rule:nonzero;"/>
        <path d="M1542.63,420.437L1544.57,420.677C1544.27,421.809 1543.7,422.687 1542.88,423.312C1542.05,423.937 1540.99,424.25 1539.71,424.25C1538.09,424.25 1536.81,423.752 1535.86,422.755C1534.91,421.759 1534.44,420.361 1534.44,418.562C1534.44,416.701 1534.92,415.257 1535.88,414.229C1536.83,413.201 1538.08,412.687 1539.6,412.687C1541.08,412.687 1542.29,413.191 1543.23,414.198C1544.17,415.205 1544.63,416.622 1544.63,418.448C1544.63,418.559 1544.63,418.726 1544.62,418.948L1536.38,418.948C1536.44,420.163 1536.79,421.094 1537.41,421.74C1538.02,422.385 1538.8,422.708 1539.72,422.708C1540.41,422.708 1540.99,422.528 1541.48,422.167C1541.97,421.806 1542.35,421.229 1542.63,420.437ZM1536.48,417.406L1542.66,417.406C1542.57,416.476 1542.34,415.778 1541.95,415.312C1541.35,414.59 1540.58,414.229 1539.62,414.229C1538.76,414.229 1538.04,414.517 1537.45,415.094C1536.87,415.67 1536.54,416.441 1536.48,417.406Z" style="fill:rgb(91,93,110);fill-rule:nonzero;"/>
        <path d="M1556.95,422.323L1557.22,423.979C1556.69,424.09 1556.22,424.146 1555.8,424.146C1555.12,424.146 1554.59,424.038 1554.22,423.823C1553.84,423.608 1553.58,423.325 1553.43,422.974C1553.27,422.623 1553.2,421.885 1553.2,420.76L1553.2,414.396L1551.82,414.396L1551.82,412.937L1553.2,412.937L1553.2,410.198L1555.06,409.073L1555.06,412.937L1556.95,412.937L1556.95,414.396L1555.06,414.396L1555.06,420.865C1555.06,421.399 1555.1,421.743 1555.16,421.896C1555.23,422.049 1555.34,422.17 1555.48,422.26C1555.63,422.351 1555.85,422.396 1556.12,422.396C1556.33,422.396 1556.61,422.372 1556.95,422.323Z" style="fill:rgb(91,93,110);fill-rule:nonzero;"/>
        <path d="M1558.08,418.469C1558.08,416.42 1558.65,414.903 1559.79,413.917C1560.74,413.097 1561.9,412.687 1563.27,412.687C1564.79,412.687 1566.04,413.186 1567,414.182C1567.97,415.179 1568.45,416.556 1568.45,418.312C1568.45,419.736 1568.23,420.856 1567.81,421.672C1567.38,422.488 1566.76,423.122 1565.94,423.573C1565.13,424.024 1564.24,424.25 1563.27,424.25C1561.72,424.25 1560.47,423.753 1559.52,422.76C1558.56,421.767 1558.08,420.337 1558.08,418.469ZM1560.01,418.469C1560.01,419.885 1560.32,420.946 1560.94,421.651C1561.56,422.356 1562.33,422.708 1563.27,422.708C1564.2,422.708 1564.98,422.354 1565.59,421.646C1566.21,420.937 1566.52,419.858 1566.52,418.406C1566.52,417.038 1566.21,416.002 1565.59,415.297C1564.97,414.592 1564.19,414.24 1563.27,414.24C1562.33,414.24 1561.56,414.59 1560.94,415.292C1560.32,415.993 1560.01,417.052 1560.01,418.469Z" style="fill:rgb(91,93,110);fill-rule:nonzero;"/>
    </g>
    <g transform="matrix(0.751544,0,0,0.751544,-47.8503,-289.088)">
        <path d="M69.332,454.18C69.332,454.776 69.614,455.124 70.177,455.224C70.243,455.257 70.756,455.273 71.717,455.273L71.717,456.118C70.823,456.151 69.481,456.234 67.693,456.366C65.905,456.499 64.563,456.581 63.669,456.614L63.669,455.77C64.398,455.77 64.828,455.753 64.961,455.72C65.358,455.588 65.557,455.257 65.557,454.727L65.557,434.31C65.557,433.648 65.259,433.317 64.663,433.317C64.067,432.985 63.769,432.687 63.769,432.423C65.954,432.29 67.759,432.108 69.183,431.876L69.183,438.284C70.508,433.88 73.058,431.677 76.833,431.677C78.423,431.677 79.218,432.257 79.218,433.416C79.218,433.946 78.944,434.434 78.398,434.881C77.852,435.329 77.313,435.552 76.784,435.552C76.287,435.552 76.038,435.37 76.038,435.006C76.038,434.608 76.237,434.277 76.635,434.012C76.568,434.012 76.452,433.996 76.287,433.962L75.889,433.962C73.604,433.962 71.866,435.585 70.674,438.831C69.779,441.248 69.332,443.831 69.332,446.58L69.332,454.18Z" style="fill:rgb(91,93,110);fill-rule:nonzero;"/>
        <path d="M101.671,452.591C99.32,455.538 96.074,457.012 91.935,457.012C88.59,457.012 85.767,455.787 83.465,453.336C81.163,450.885 80.013,447.888 80.013,444.345C80.013,440.735 81.147,437.721 83.415,435.304C85.684,432.886 88.524,431.677 91.935,431.677C94.683,431.677 97.018,432.555 98.939,434.31C100.76,435.966 101.837,438.069 102.168,440.619L84.285,446.729C84.682,448.782 85.394,450.455 86.421,451.746C88.01,453.733 90.08,454.727 92.63,454.727C95.776,454.727 98.591,453.303 101.075,450.455C101.174,450.687 101.274,451.043 101.373,451.523C101.472,452.003 101.572,452.359 101.671,452.591ZM84.086,444.593C87.033,443.467 91.454,441.761 97.349,439.476C96.753,435.8 94.932,433.962 91.885,433.962C89.401,433.962 87.48,434.84 86.123,436.595C84.765,438.35 84.086,440.785 84.086,443.898L84.086,444.593Z" style="fill:rgb(91,93,110);fill-rule:nonzero;"/>
        <path d="M115.53,433.863C113.709,433.863 112.227,434.434 111.085,435.577C109.942,436.719 109.371,438.218 109.371,440.073C109.371,441.96 109.917,443.475 111.01,444.618C112.103,445.76 113.593,446.332 115.481,446.332C117.269,446.332 118.71,445.76 119.803,444.618C120.895,443.475 121.442,441.977 121.442,440.122C121.442,438.268 120.887,436.761 119.778,435.602C118.668,434.443 117.253,433.863 115.53,433.863ZM105.446,440.172C105.446,437.721 106.382,435.693 108.253,434.087C110.124,432.48 112.451,431.677 115.232,431.677C116.259,431.677 117.335,431.826 118.461,432.124C121.872,430.634 124.174,429.889 125.366,429.889C126.393,429.889 126.906,430.336 126.906,431.23C126.906,431.893 126.558,432.24 125.863,432.273L124.621,432.323C122.866,432.323 121.872,432.721 121.641,433.515C121.839,433.648 122.088,433.83 122.386,434.062C124.373,435.651 125.366,437.655 125.366,440.073C125.366,442.391 124.447,444.303 122.609,445.81C120.771,447.317 118.478,448.07 115.729,448.07C113.742,448.07 112.169,447.805 111.01,447.275L110.861,447.325C110.265,447.524 109.967,447.772 109.967,448.07C109.967,448.633 110.613,449.014 111.904,449.213C112.699,449.312 114.462,449.395 117.195,449.461C119.927,449.527 122.154,450.19 123.876,451.448C125.731,452.806 126.658,454.661 126.658,457.012C126.658,459.628 125.507,461.764 123.205,463.42C120.904,465.076 118.114,465.904 114.835,465.904C112.219,465.904 109.768,465.208 107.483,463.817C105.198,462.427 104.055,461.052 104.055,459.694C104.055,458.105 105.761,457.144 109.172,456.813C109.503,456.78 110.016,456.714 110.712,456.614C108.162,457.144 106.887,457.807 106.887,458.601C106.887,459.562 107.698,460.605 109.321,461.731C111.109,462.989 113.047,463.619 115.133,463.619C117.352,463.619 119.256,463.139 120.846,462.178C122.601,461.118 123.479,459.727 123.479,458.005C123.479,456.383 122.7,455.025 121.144,453.932C119.587,452.839 117.501,452.326 114.885,452.392L113.146,452.442C113.08,452.442 112.086,452.409 110.166,452.342C108.377,452.276 107.483,451.813 107.483,450.951C107.483,450.388 107.847,449.66 108.576,448.766C109.238,447.971 109.867,447.408 110.464,447.077C107.119,445.487 105.446,443.186 105.446,440.172Z" style="fill:rgb(91,93,110);fill-rule:nonzero;"/>
        <path d="M131.576,424.127C131.576,423.796 131.915,423.266 132.594,422.537C133.273,421.809 133.778,421.444 134.109,421.444C134.44,421.444 134.945,421.809 135.624,422.537C136.303,423.266 136.643,423.796 136.643,424.127C136.643,424.458 136.303,424.988 135.624,425.716C134.945,426.445 134.44,426.809 134.109,426.809C133.778,426.809 133.273,426.445 132.594,425.716C131.915,424.988 131.576,424.458 131.576,424.127ZM136.394,454.18C136.394,454.909 136.792,455.273 137.586,455.273L138.282,455.273L138.332,456.118C137.504,456.151 136.245,456.234 134.556,456.366C132.867,456.499 131.592,456.581 130.731,456.614L130.731,455.77L131.427,455.77C132.221,455.77 132.619,455.422 132.619,454.727L132.619,434.509C132.619,433.847 132.304,433.515 131.675,433.515C131.046,433.25 130.731,432.952 130.731,432.621C131.99,432.489 133.877,432.24 136.394,431.876L136.394,454.18Z" style="fill:rgb(91,93,110);fill-rule:nonzero;"/>
        <path d="M159.841,449.262C159.841,451.581 159.013,453.452 157.357,454.876C155.701,456.3 153.516,457.012 150.8,457.012C147.952,457.012 145.419,456.051 143.2,454.131C142.802,454.131 142.571,454.396 142.504,454.926L141.809,454.926L141.809,450.653C142.008,450.521 142.306,450.355 142.703,450.157C143.1,449.958 143.398,449.809 143.597,449.71C145.021,453.054 147.472,454.727 150.949,454.727C152.472,454.727 153.772,454.321 154.849,453.51C155.925,452.698 156.463,451.697 156.463,450.504C156.463,449.147 155.95,448.103 154.923,447.375C153.897,446.646 152.257,446.05 150.005,445.587C144.806,444.527 142.206,442.192 142.206,438.582C142.206,436.595 143.009,434.948 144.615,433.64C146.222,432.331 148.151,431.677 150.403,431.677C151.827,431.677 153.3,431.959 154.824,432.522C156.016,432.985 156.927,433.482 157.556,434.012C157.854,434.012 158.036,433.797 158.102,433.366L158.897,433.366L158.897,436.993C158.367,437.39 157.821,437.771 157.258,438.135C155.966,435.353 153.714,433.962 150.502,433.962C148.912,433.962 147.695,434.302 146.851,434.981C146.006,435.66 145.584,436.562 145.584,437.688C145.584,438.748 146.015,439.609 146.876,440.271C147.737,440.934 149.277,441.513 151.496,442.01C154.609,442.705 156.778,443.624 158.003,444.767C159.228,445.909 159.841,447.408 159.841,449.262Z" style="fill:rgb(91,93,110);fill-rule:nonzero;"/>
        <path d="M168.832,450.753C168.832,452.21 169.114,453.228 169.677,453.808C170.24,454.387 171.217,454.677 172.608,454.677C173.7,454.677 174.644,453.568 175.439,451.349L176.135,452.69C175.837,453.419 175.489,454.064 175.091,454.627C174.164,455.952 173.038,456.697 171.713,456.863C171.349,456.896 171.001,456.913 170.67,456.913C168.882,456.913 167.499,456.308 166.522,455.099C165.545,453.891 165.057,452.276 165.057,450.256L165.057,434.509L161.629,434.509L161.977,432.224C163.666,432.224 164.891,431.694 165.653,430.634C166.183,430.237 166.68,429.227 167.143,427.604C167.64,425.716 167.938,424.69 168.037,424.524L168.832,424.524L168.832,432.224L175.687,432.224L175.687,434.509L168.832,434.509L168.832,450.753Z" style="fill:rgb(91,93,110);fill-rule:nonzero;"/>
        <path d="M183.934,454.18C183.934,454.776 184.215,455.124 184.778,455.224C184.844,455.257 185.358,455.273 186.318,455.273L186.318,456.118C185.424,456.151 184.083,456.234 182.294,456.366C180.506,456.499 179.165,456.581 178.271,456.614L178.271,455.77C178.999,455.77 179.43,455.753 179.562,455.72C179.96,455.588 180.158,455.257 180.158,454.727L180.158,434.31C180.158,433.648 179.86,433.317 179.264,433.317C178.668,432.985 178.37,432.687 178.37,432.423C180.556,432.29 182.361,432.108 183.785,431.876L183.785,438.284C185.109,433.88 187.659,431.677 191.435,431.677C193.024,431.677 193.819,432.257 193.819,433.416C193.819,433.946 193.546,434.434 192.999,434.881C192.453,435.329 191.915,435.552 191.385,435.552C190.888,435.552 190.64,435.37 190.64,435.006C190.64,434.608 190.839,434.277 191.236,434.012C191.17,434.012 191.054,433.996 190.888,433.962L190.491,433.962C188.206,433.962 186.467,435.585 185.275,438.831C184.381,441.248 183.934,443.831 183.934,446.58L183.934,454.18Z" style="fill:rgb(91,93,110);fill-rule:nonzero;"/>
        <path d="M209.367,447.872L209.367,445.736C209.169,444.709 208.713,443.947 208.001,443.45C207.289,442.954 206.602,442.738 205.94,442.805L205.344,442.854C203.357,443.02 201.701,443.757 200.376,445.065C199.052,446.373 198.389,447.888 198.389,449.61C198.389,451.034 198.845,452.21 199.755,453.137C200.666,454.064 201.9,454.528 203.456,454.528C205.145,454.528 206.553,453.882 207.679,452.591C208.804,451.299 209.367,449.726 209.367,447.872ZM209.566,452.789C208.241,455.604 205.89,457.012 202.512,457.012C199.995,457.012 197.992,456.325 196.502,454.95C195.011,453.576 194.266,451.813 194.266,449.66C194.266,447.54 195.16,445.678 196.949,444.071C198.737,442.465 200.923,441.447 203.506,441.016C203.936,440.95 204.499,440.934 205.195,440.967L206.188,441.016C207.116,441.049 208.175,441.281 209.367,441.712L209.367,437.738C209.367,436.512 208.862,435.569 207.852,434.906C206.842,434.244 205.576,433.913 204.052,433.913C202.959,433.913 201.751,434.111 200.426,434.509C199.333,434.873 198.538,435.221 198.041,435.552C198.77,435.718 199.134,436.165 199.134,436.893C199.134,437.324 198.919,437.539 198.489,437.539C198.389,437.539 198.174,437.506 197.843,437.44C196.982,437.175 196.551,436.695 196.551,435.999C196.551,435.006 197.28,434.045 198.737,433.118C200.327,432.124 202.231,431.628 204.45,431.628C210.245,431.628 213.143,433.979 213.143,438.682L213.143,453.833C213.143,454.76 213.391,455.224 213.888,455.224C214.55,455.224 214.881,454.644 214.881,453.485L215.577,453.485C215.577,454.379 215.171,455.157 214.36,455.82C213.548,456.482 212.613,456.813 211.553,456.813C210.46,456.813 209.798,455.472 209.566,452.789Z" style="fill:rgb(91,93,110);fill-rule:nonzero;"/>
        <path d="M224.071,450.753C224.071,452.21 224.353,453.228 224.916,453.808C225.479,454.387 226.456,454.677 227.847,454.677C228.94,454.677 229.883,453.568 230.678,451.349L231.374,452.69C231.076,453.419 230.728,454.064 230.331,454.627C229.403,455.952 228.277,456.697 226.953,456.863C226.588,456.896 226.241,456.913 225.909,456.913C224.121,456.913 222.738,456.308 221.762,455.099C220.785,453.891 220.296,452.276 220.296,450.256L220.296,434.509L216.868,434.509L217.216,432.224C218.905,432.224 220.13,431.694 220.892,430.634C221.422,430.237 221.919,429.227 222.382,427.604C222.879,425.716 223.177,424.69 223.277,424.524L224.071,424.524L224.071,432.224L230.927,432.224L230.927,434.509L224.071,434.509L224.071,450.753Z" style="fill:rgb(91,93,110);fill-rule:nonzero;"/>
        <path d="M235.149,424.127C235.149,423.796 235.488,423.266 236.167,422.537C236.846,421.809 237.351,421.444 237.682,421.444C238.014,421.444 238.519,421.809 239.198,422.537C239.877,423.266 240.216,423.796 240.216,424.127C240.216,424.458 239.877,424.988 239.198,425.716C238.519,426.445 238.014,426.809 237.682,426.809C237.351,426.809 236.846,426.445 236.167,425.716C235.488,424.988 235.149,424.458 235.149,424.127ZM239.968,454.18C239.968,454.909 240.365,455.273 241.16,455.273L241.855,455.273L241.905,456.118C241.077,456.151 239.819,456.234 238.13,456.366C236.441,456.499 235.166,456.581 234.305,456.614L234.305,455.77L235,455.77C235.795,455.77 236.192,455.422 236.192,454.727L236.192,434.509C236.192,433.847 235.878,433.515 235.248,433.515C234.619,433.25 234.305,432.952 234.305,432.621C235.563,432.489 237.451,432.24 239.968,431.876L239.968,454.18Z" style="fill:rgb(91,93,110);fill-rule:nonzero;"/>
        <path d="M270.568,444.345C270.568,447.888 269.359,450.885 266.941,453.336C264.524,455.787 261.576,457.012 258.099,457.012C254.622,457.012 251.683,455.787 249.282,453.336C246.881,450.885 245.68,447.888 245.68,444.345C245.68,440.801 246.881,437.804 249.282,435.353C251.683,432.903 254.622,431.677 258.099,431.677C261.61,431.677 264.565,432.903 266.966,435.353C269.367,437.804 270.568,440.801 270.568,444.345ZM266.445,444.345C266.445,441.165 265.699,438.64 264.209,436.769C262.719,434.898 260.682,433.962 258.099,433.962C255.516,433.962 253.488,434.898 252.014,436.769C250.54,438.64 249.803,441.165 249.803,444.345C249.803,447.524 250.54,450.049 252.014,451.92C253.488,453.791 255.516,454.727 258.099,454.727C260.682,454.727 262.719,453.791 264.209,451.92C265.699,450.049 266.445,447.524 266.445,444.345Z" style="fill:rgb(91,93,110);fill-rule:nonzero;"/>
        <path d="M294.66,454.18C294.66,454.909 295.025,455.273 295.753,455.273L296.399,455.273L296.449,456.118C294.031,456.25 292.177,456.416 290.885,456.614L290.885,439.824C290.885,435.916 289.163,433.962 285.719,433.962C283.864,433.962 282.291,434.716 281,436.223C279.708,437.73 279.062,439.543 279.062,441.662L279.062,454.18C279.062,454.909 279.46,455.273 280.254,455.273L281,455.273L281,456.118C280.172,456.151 278.93,456.234 277.274,456.366C275.618,456.499 274.376,456.581 273.548,456.614L273.548,455.77L274.194,455.77C274.923,455.77 275.287,455.422 275.287,454.727L275.287,434.31C275.287,433.648 275.005,433.317 274.442,433.317C273.846,433.019 273.548,432.721 273.548,432.423C273.846,432.389 274.293,432.34 274.889,432.273C275.486,432.207 275.916,432.174 276.181,432.174C277.042,432.108 277.936,432.009 278.863,431.876L278.863,436.297C280.884,433.217 283.45,431.677 286.563,431.677C289.146,431.677 291.142,432.464 292.549,434.037C293.957,435.61 294.66,437.837 294.66,440.718L294.66,454.18Z" style="fill:rgb(91,93,110);fill-rule:nonzero;"/>
        <path d="M334.252,454.18C334.252,454.909 334.632,455.273 335.394,455.273L336.09,455.273L336.09,456.118C333.937,456.25 332.066,456.416 330.476,456.614L330.476,439.675C330.476,435.867 328.903,433.962 325.757,433.962C324.002,433.962 322.603,434.625 321.56,435.949C320.516,437.274 319.995,438.996 319.995,441.116L319.995,454.18C319.995,454.909 320.359,455.273 321.088,455.273L321.733,455.273L321.733,456.118C319.647,456.217 317.793,456.383 316.17,456.614L316.17,439.675C316.17,435.867 314.58,433.962 311.401,433.962C309.613,433.962 308.197,434.641 307.154,435.999C306.11,437.357 305.589,439.195 305.589,441.513L305.589,454.18C305.589,454.909 305.986,455.273 306.781,455.273L307.526,455.273L307.576,456.118C306.748,456.151 305.49,456.234 303.801,456.366C302.112,456.499 300.837,456.581 299.976,456.614L299.976,455.77L300.671,455.77C301.433,455.77 301.814,455.422 301.814,454.727L301.814,434.31C301.814,433.648 301.532,433.317 300.969,433.317C300.373,433.019 300.075,432.721 300.075,432.423C300.671,432.356 301.565,432.273 302.757,432.174C303.685,432.108 304.562,432.009 305.39,431.876L305.39,436.148C307.013,433.168 309.348,431.677 312.394,431.677C315.971,431.677 318.289,433.25 319.349,436.397C320.905,433.25 323.356,431.677 326.701,431.677C331.735,431.677 334.252,434.542 334.252,440.271L334.252,454.18Z" style="fill:rgb(6,134,216);fill-rule:nonzero;"/>
        <path d="M354.321,447.872L354.321,445.736C354.122,444.709 353.666,443.947 352.954,443.45C352.242,442.954 351.555,442.738 350.893,442.805L350.297,442.854C348.31,443.02 346.654,443.757 345.329,445.065C344.005,446.373 343.342,447.888 343.342,449.61C343.342,451.034 343.798,452.21 344.708,453.137C345.619,454.064 346.853,454.528 348.409,454.528C350.098,454.528 351.506,453.882 352.632,452.591C353.758,451.299 354.321,449.726 354.321,447.872ZM354.519,452.789C353.195,455.604 350.843,457.012 347.465,457.012C344.948,457.012 342.945,456.325 341.455,454.95C339.964,453.576 339.219,451.813 339.219,449.66C339.219,447.54 340.113,445.678 341.902,444.071C343.69,442.465 345.876,441.447 348.459,441.016C348.889,440.95 349.452,440.934 350.148,440.967L351.141,441.016C352.069,441.049 353.128,441.281 354.321,441.712L354.321,437.738C354.321,436.512 353.816,435.569 352.805,434.906C351.795,434.244 350.529,433.913 349.005,433.913C347.912,433.913 346.704,434.111 345.379,434.509C344.286,434.873 343.491,435.221 342.995,435.552C343.723,435.718 344.087,436.165 344.087,436.893C344.087,437.324 343.872,437.539 343.442,437.539C343.342,437.539 343.127,437.506 342.796,437.44C341.935,437.175 341.504,436.695 341.504,435.999C341.504,435.006 342.233,434.045 343.69,433.118C345.28,432.124 347.184,431.628 349.403,431.628C355.198,431.628 358.096,433.979 358.096,438.682L358.096,453.833C358.096,454.76 358.344,455.224 358.841,455.224C359.503,455.224 359.835,454.644 359.835,453.485L360.53,453.485C360.53,454.379 360.124,455.157 359.313,455.82C358.502,456.482 357.566,456.813 356.506,456.813C355.413,456.813 354.751,455.472 354.519,452.789Z" style="fill:rgb(6,134,216);fill-rule:nonzero;"/>
        <path d="M373.694,433.863C371.873,433.863 370.391,434.434 369.248,435.577C368.105,436.719 367.534,438.218 367.534,440.073C367.534,441.96 368.081,443.475 369.174,444.618C370.266,445.76 371.757,446.332 373.644,446.332C375.433,446.332 376.873,445.76 377.966,444.618C379.059,443.475 379.605,441.977 379.605,440.122C379.605,438.268 379.051,436.761 377.941,435.602C376.832,434.443 375.416,433.863 373.694,433.863ZM363.61,440.172C363.61,437.721 364.545,435.693 366.417,434.087C368.288,432.48 370.614,431.677 373.396,431.677C374.423,431.677 375.499,431.826 376.625,432.124C380.036,430.634 382.338,429.889 383.53,429.889C384.556,429.889 385.07,430.336 385.07,431.23C385.07,431.893 384.722,432.24 384.026,432.273L382.785,432.323C381.029,432.323 380.036,432.721 379.804,433.515C380.003,433.648 380.251,433.83 380.549,434.062C382.536,435.651 383.53,437.655 383.53,440.073C383.53,442.391 382.611,444.303 380.773,445.81C378.935,447.317 376.641,448.07 373.893,448.07C371.906,448.07 370.333,447.805 369.174,447.275L369.024,447.325C368.428,447.524 368.13,447.772 368.13,448.07C368.13,448.633 368.776,449.014 370.068,449.213C370.862,449.312 372.626,449.395 375.358,449.461C378.09,449.527 380.317,450.19 382.039,451.448C383.894,452.806 384.821,454.661 384.821,457.012C384.821,459.628 383.67,461.764 381.369,463.42C379.067,465.076 376.277,465.904 372.999,465.904C370.382,465.904 367.932,465.208 365.647,463.817C363.361,462.427 362.219,461.052 362.219,459.694C362.219,458.105 363.924,457.144 367.336,456.813C367.667,456.78 368.18,456.714 368.875,456.614C366.325,457.144 365.05,457.807 365.05,458.601C365.05,459.562 365.862,460.605 367.485,461.731C369.273,462.989 371.21,463.619 373.297,463.619C375.515,463.619 377.42,463.139 379.009,462.178C380.764,461.118 381.642,459.727 381.642,458.005C381.642,456.383 380.864,455.025 379.307,453.932C377.751,452.839 375.664,452.326 373.048,452.392L371.31,452.442C371.243,452.442 370.25,452.409 368.329,452.342C366.541,452.276 365.647,451.813 365.647,450.951C365.647,450.388 366.011,449.66 366.739,448.766C367.402,447.971 368.031,447.408 368.627,447.077C365.282,445.487 363.61,443.186 363.61,440.172Z" style="fill:rgb(6,134,216);fill-rule:nonzero;"/>
        <path d="M389.739,424.127C389.739,423.796 390.079,423.266 390.758,422.537C391.436,421.809 391.941,421.444 392.273,421.444C392.604,421.444 393.109,421.809 393.788,422.537C394.467,423.266 394.806,423.796 394.806,424.127C394.806,424.458 394.467,424.988 393.788,425.716C393.109,426.445 392.604,426.809 392.273,426.809C391.941,426.809 391.436,426.445 390.758,425.716C390.079,424.988 389.739,424.458 389.739,424.127ZM394.558,454.18C394.558,454.909 394.955,455.273 395.75,455.273L396.445,455.273L396.495,456.118C395.667,456.151 394.409,456.234 392.72,456.366C391.031,456.499 389.756,456.581 388.895,456.614L388.895,455.77L389.59,455.77C390.385,455.77 390.782,455.422 390.782,454.727L390.782,434.509C390.782,433.847 390.468,433.515 389.839,433.515C389.209,433.25 388.895,432.952 388.895,432.621C390.153,432.489 392.041,432.24 394.558,431.876L394.558,454.18Z" style="fill:rgb(6,134,216);fill-rule:nonzero;"/>
        <path d="M420.637,451.25C420.836,451.382 421.101,451.606 421.432,451.92C421.763,452.235 422.012,452.475 422.177,452.64C419.826,455.555 416.696,457.012 412.789,457.012C409.212,457.012 406.248,455.811 403.897,453.41C401.545,451.009 400.37,448.004 400.37,444.394C400.37,440.884 401.653,437.887 404.22,435.403C406.786,432.919 409.891,431.677 413.534,431.677C415.719,431.677 417.69,432.24 419.445,433.366C421.068,434.393 421.879,435.436 421.879,436.496C421.879,437.357 421.25,437.903 419.992,438.135C419.627,438.201 419.379,438.235 419.246,438.235C418.584,438.235 418.154,437.953 417.955,437.39C417.955,436.86 418.145,436.529 418.526,436.397C418.907,436.264 419.147,436.198 419.246,436.198L419.743,436.248C418.452,434.724 416.398,433.962 413.583,433.962C410.802,433.962 408.591,434.89 406.952,436.744C405.312,438.599 404.493,441.066 404.493,444.146C404.493,447.259 405.312,449.801 406.952,451.771C408.591,453.742 410.719,454.727 413.335,454.727C415.024,454.727 416.647,454.28 418.203,453.386C419.362,452.69 420.174,451.978 420.637,451.25Z" style="fill:rgb(6,134,216);fill-rule:nonzero;"/>
    </g>
</svg>
